<svg xmlns="http://www.w3.org/2000/svg" viewBox="0 0 153.25 73.99"><title>Asset 6</title><g id="Layer_2" data-name="Layer 2"><g id="Layer_1-2" data-name="Layer 1"><path d="M78.35,23.79c-1.27-3-2.58-6.1-4.2-9.1A35.08,35.08,0,0,0,68,6.2a21.65,21.65,0,0,0-4.31-3.33,20.78,20.78,0,0,0-2.44-1.25A19.54,19.54,0,0,0,58.66.74a21.24,21.24,0,0,0-10.33,0,24.58,24.58,0,0,0-8.64,4,23.76,23.76,0,0,0-3.43,3,26.66,26.66,0,0,0-2.71,3.39,34,34,0,0,0-5.28,14.24,46.46,46.46,0,0,0,0,12.14,65.33,65.33,0,0,0,1.7,8.78c1.25,4.71,2.31,7.19,2.8,7.09s.43-2.8.08-7.56c-.17-2.38-.38-5.27-.39-8.57a48.74,48.74,0,0,1,1.06-10.94,30.08,30.08,0,0,1,5.12-11.57,20.06,20.06,0,0,1,4.85-4.61,18.26,18.26,0,0,1,6.4-2.68,14.45,14.45,0,0,1,6.92.18A12,12,0,0,1,60,9.08a14.18,14.18,0,0,1,2.87,2.33,28.58,28.58,0,0,1,4.74,6.8c1.39,2.62,2.6,5.49,3.88,8.51l3.8,8.92c1.27,2.93,2.46,5.79,3.79,8.71a59.29,59.29,0,0,0,4.65,8.47A28.86,28.86,0,0,0,90.45,60a21.11,21.11,0,0,0,4.39,2.41,19.37,19.37,0,0,0,2.37.79c.8.19,1.61.35,2.42.46a21.18,21.18,0,0,0,9.1-1A23.86,23.86,0,0,0,121.07,53a25.72,25.72,0,0,0,3.82-12,29.74,29.74,0,0,0-.78-9.19c-1.23-4.88-2.87-7.16-3.29-7s.13,2.8.41,7.42a34.28,34.28,0,0,1-.5,8.23,26.33,26.33,0,0,1-1.39,4.8A20.84,20.84,0,0,1,116.69,50a18.92,18.92,0,0,1-9.82,6.72,15.08,15.08,0,0,1-6.34.4,13.47,13.47,0,0,1-6-2.67c-3.69-2.87-6.46-7.71-8.83-13.14Z"/><path d="M17.76,61.36a30.62,30.62,0,0,1-7-9.1A40.6,40.6,0,0,1,7.25,41.83,66.75,66.75,0,0,1,7,22.43c.65-5.66,1.48-10.3,1.88-13.55s.42-5.13-.08-5.27S7.37,5.08,6.08,8.13A87.89,87.89,0,0,0,1.8,21.52,60,60,0,0,0,.43,42.94,43.93,43.93,0,0,0,4.21,55.52,36.09,36.09,0,0,0,12.84,67a28.32,28.32,0,0,0,6.25,4.18,31.1,31.1,0,0,0,3.43,1.44,28.36,28.36,0,0,0,3.57.92A24.19,24.19,0,0,0,40,72.14a21.43,21.43,0,0,0,5.62-3.59,23.38,23.38,0,0,0,4-4.63,29.48,29.48,0,0,0,4.1-9.65,39.26,39.26,0,0,0,1-8.26,49.4,49.4,0,0,0-.25-6.11c-.36-3.31-.86-5.1-1.37-5.11s-1,1.8-1.55,5a76.38,76.38,0,0,1-2.9,13,26.92,26.92,0,0,1-4.06,7.51,16.49,16.49,0,0,1-7.16,5.44,18,18,0,0,1-9.89.61,21.35,21.35,0,0,1-2.57-.72,22.15,22.15,0,0,1-2.5-1.11A21.83,21.83,0,0,1,17.76,61.36Z"/><path d="M135.49,12.63a30.33,30.33,0,0,1,7,9.1A39.86,39.86,0,0,1,146,32.16a66.77,66.77,0,0,1,.23,19.4c-.66,5.65-1.49,10.29-1.88,13.55s-.43,5.13.08,5.27,1.46-1.47,2.74-4.52a87.71,87.71,0,0,0,4.28-13.4A60,60,0,0,0,152.82,31,43.56,43.56,0,0,0,149,18.47,36,36,0,0,0,140.41,7a28.09,28.09,0,0,0-6.25-4.18,31,31,0,0,0-3.42-1.44,28.36,28.36,0,0,0-3.57-.92,24.18,24.18,0,0,0-13.91,1.42,21.26,21.26,0,0,0-5.62,3.59,23.49,23.49,0,0,0-4,4.63,29.48,29.48,0,0,0-4.1,9.65,40.63,40.63,0,0,0-1,8.26,51.45,51.45,0,0,0,.25,6.11c.36,3.31.86,5.1,1.37,5.11s1-1.8,1.55-5a75.59,75.59,0,0,1,2.91-13,26.66,26.66,0,0,1,4.06-7.51,16.43,16.43,0,0,1,7.16-5.44,18,18,0,0,1,9.89-.61,21.2,21.2,0,0,1,2.56.72,22.29,22.29,0,0,1,2.51,1.11A21.52,21.52,0,0,1,135.49,12.63Z"/></g></g></svg>