<svg xmlns="http://www.w3.org/2000/svg" xmlns:xlink="http://www.w3.org/1999/xlink" viewBox="0 0 1018.1 596.9"><defs><style>.cls-1{fill:none;}.cls-2{fill:#0089bf;}.cls-3{fill:#003f59;}.cls-4{fill:#2cc1ff;}.cls-5{clip-path:url(#clip-path);}.cls-6{fill:#28aee6;}</style><clipPath id="clip-path"><path class="cls-1" d="M676.35,298.44A138.12,138.12,0,1,1,538.23,160.32V63.23C408.33,63.23,303,168.54,303,298.44s105.3,235.2,235.2,235.2,235.21-105.3,235.21-235.2Z"/></clipPath></defs><title>24 7</title><g id="Layer_2" data-name="Layer 2"><g id="Icon"><path class="cls-2" d="M538.23,436.55a138.12,138.12,0,0,1,0-276.23V63.23C408.33,63.23,303,168.54,303,298.44s105.3,235.2,235.2,235.2,235.21-105.3,235.21-235.2H676.35A138.11,138.11,0,0,1,538.23,436.55Z"/><polygon class="cls-2" points="538.23 160.32 538.23 186.47 593.74 105.75 538.23 39.96 538.23 160.32"/><path class="cls-3" d="M617.06,242.27l4-6q7.14-10.9,10.78-16.07,13.36-18.87,17-26.61a66.2,66.2,0,0,0,6.69-29,36,36,0,0,0-10.26-25.44,32.81,32.81,0,0,0-24.8-10.9q-15.83,0-25.56,9.73-11.25,11-11.25,31.89v3.87h21.8v-5.63a24.56,24.56,0,0,1,1.29-8.44q3.87-10.66,13.14-10.67A13.13,13.13,0,0,1,630.43,154a17.65,17.65,0,0,1,3.75,11.37,44.78,44.78,0,0,1-4.11,17.7q-5,11.59-15.26,25.9Q604,224.19,599,231.1l-5.76,8.31q-2.84,4.09-5.07,7.49-4.83,7.4-4.83,8.1v20.33h70.46V253.64h-43.5a7.64,7.64,0,0,1,.94-2.11Q613.19,248.13,617.06,242.27Z"/><path class="cls-3" d="M717.89,128.31H695.73L656.57,221.4v22.27h39.16v31.66h22.16V243.67h14.18V221.4H717.89ZM695.73,221.4h-18.3l18.3-45.92Z"/><polygon class="cls-2" points="761.78 244 752.58 244 752.58 222.53 744.96 222.53 744.96 273.09 752.58 273.09 752.58 251.66 761.78 251.66 761.78 273.09 769.41 273.09 769.41 222.53 761.78 222.53 761.78 244"/><circle class="cls-4" cx="540.63" cy="298.45" r="25.36"/><g class="cls-5"><rect class="cls-6" x="-168.78" y="296.61" width="689.95" height="3.67" transform="matrix(0.51, -0.86, 0.86, 0.51, -170.38, 299.33)"/><rect class="cls-6" x="-148.61" y="296.61" width="689.95" height="3.67" transform="matrix(0.51, -0.86, 0.86, 0.51, -160.42, 316.72)"/><rect class="cls-6" x="-128.43" y="296.61" width="689.95" height="3.67" transform="matrix(0.51, -0.86, 0.86, 0.51, -150.46, 334.12)"/><rect class="cls-6" x="-108.26" y="296.61" width="689.95" height="3.67" transform="translate(-140.5 351.52) rotate(-59.59)"/><rect class="cls-6" x="-88.09" y="296.61" width="689.95" height="3.67" transform="matrix(0.51, -0.86, 0.86, 0.51, -130.54, 368.92)"/><rect class="cls-6" x="-67.91" y="296.61" width="689.95" height="3.67" transform="translate(-120.57 386.34) rotate(-59.59)"/><rect class="cls-6" x="-47.74" y="296.61" width="689.95" height="3.67" transform="translate(-110.61 403.74) rotate(-59.59)"/><rect class="cls-6" x="-27.57" y="296.61" width="689.95" height="3.67" transform="matrix(0.51, -0.86, 0.86, 0.51, -100.65, 421.11)"/><rect class="cls-6" x="-7.4" y="296.61" width="689.95" height="3.67" transform="matrix(0.51, -0.86, 0.86, 0.51, -90.69, 438.51)"/><rect class="cls-6" x="12.78" y="296.61" width="689.95" height="3.67" transform="matrix(0.51, -0.86, 0.86, 0.51, -80.73, 455.9)"/><rect class="cls-6" x="32.95" y="296.61" width="689.95" height="3.67" transform="matrix(0.51, -0.86, 0.86, 0.51, -70.77, 473.3)"/><rect class="cls-6" x="53.12" y="296.61" width="689.95" height="3.67" transform="matrix(0.51, -0.86, 0.86, 0.51, -60.81, 490.7)"/><rect class="cls-6" x="73.3" y="296.61" width="689.95" height="3.67" transform="translate(-50.83 508.13) rotate(-59.59)"/><rect class="cls-6" x="93.47" y="296.61" width="689.95" height="3.67" transform="translate(-40.87 525.53) rotate(-59.59)"/><rect class="cls-6" x="113.64" y="296.61" width="689.95" height="3.67" transform="matrix(0.51, -0.86, 0.86, 0.51, -30.92, 542.89)"/><rect class="cls-6" x="133.82" y="296.61" width="689.95" height="3.67" transform="matrix(0.51, -0.86, 0.86, 0.51, -20.96, 560.29)"/><rect class="cls-6" x="153.99" y="296.61" width="689.95" height="3.67" transform="matrix(0.51, -0.86, 0.86, 0.51, -11, 577.69)"/><rect class="cls-6" x="174.16" y="296.61" width="689.95" height="3.67" transform="matrix(0.51, -0.86, 0.86, 0.51, -1.04, 595.08)"/><rect class="cls-6" x="194.33" y="296.61" width="689.95" height="3.67" transform="translate(8.92 612.48) rotate(-59.59)"/><rect class="cls-6" x="214.51" y="296.61" width="689.95" height="3.67" transform="matrix(0.51, -0.86, 0.86, 0.51, 18.91, 629.92)"/><rect class="cls-6" x="234.68" y="296.61" width="689.95" height="3.67" transform="translate(28.87 647.31) rotate(-59.59)"/><rect class="cls-6" x="254.85" y="296.61" width="689.95" height="3.67" transform="translate(38.81 664.67) rotate(-59.59)"/><rect class="cls-6" x="275.03" y="296.61" width="689.95" height="3.67" transform="translate(48.77 682.07) rotate(-59.59)"/><rect class="cls-6" x="295.2" y="296.61" width="689.95" height="3.67" transform="translate(58.73 699.47) rotate(-59.59)"/><rect class="cls-6" x="315.37" y="296.61" width="689.95" height="3.67" transform="matrix(0.51, -0.86, 0.86, 0.51, 68.69, 716.87)"/><rect class="cls-6" x="335.55" y="296.61" width="689.95" height="3.67" transform="translate(78.65 734.26) rotate(-59.59)"/><rect class="cls-6" x="355.72" y="296.61" width="689.95" height="3.67" transform="translate(88.64 751.7) rotate(-59.59)"/><rect class="cls-6" x="375.89" y="296.61" width="689.95" height="3.67" transform="translate(98.61 769.1) rotate(-59.59)"/><rect class="cls-6" x="396.07" y="296.61" width="689.95" height="3.67" transform="translate(108.54 786.46) rotate(-59.59)"/><rect class="cls-6" x="416.24" y="296.61" width="689.95" height="3.67" transform="translate(118.5 803.85) rotate(-59.59)"/><rect class="cls-6" x="436.41" y="296.61" width="689.95" height="3.67" transform="translate(128.46 821.25) rotate(-59.59)"/><rect class="cls-6" x="456.58" y="296.61" width="689.95" height="3.67" transform="translate(138.42 838.65) rotate(-59.59)"/><rect class="cls-6" x="476.76" y="296.61" width="689.95" height="3.67" transform="translate(148.38 856.05) rotate(-59.59)"/><rect class="cls-6" x="496.93" y="296.61" width="689.95" height="3.67" transform="translate(158.38 873.49) rotate(-59.59)"/></g></g></g></svg>