<svg xmlns="http://www.w3.org/2000/svg" xmlns:xlink="http://www.w3.org/1999/xlink" viewBox="0 0 2345.48 1405.22"><defs><style>.cls-1{fill:none;}.cls-2{fill:#0089bf;}.cls-3{fill:#003f59;}.cls-4{fill:#2cc1ff;}.cls-5{clip-path:url(#clip-path);}.cls-6{fill:#28aee6;}.cls-7{fill:#fff;}</style><clipPath id="clip-path"><path class="cls-1" d="M703.06,599.75,713.21,690a19.46,19.46,0,0,0,19.35,17.3h742.78a20.73,20.73,0,0,0,20.6-18.41l10-89.14a135.5,135.5,0,0,0,.69-20.39H702.37A135.5,135.5,0,0,0,703.06,599.75Z"/></clipPath></defs><title>advance checkup</title><g id="Layer_2" data-name="Layer 2"><g id="Icon"><path class="cls-2" d="M2287.21,20.33H576.26A58.44,58.44,0,0,0,518,78.6V1082.28a58.44,58.44,0,0,0,58.27,58.27H1208v91.27L999.67,1361.66c-20.1,12.53-11.22,43.56,12.47,43.56h839.19c23.7,0,32.57-31,12.47-43.56l-208.36-129.84v-91.27h631.77a58.44,58.44,0,0,0,58.27-58.27V78.6A58.44,58.44,0,0,0,2287.21,20.33Zm-46.8,944.44a58.44,58.44,0,0,1-58.27,58.27h-1491a58.44,58.44,0,0,1-58.27-58.27V166.35a58.45,58.45,0,0,1,58.27-58.27h1491a58.45,58.45,0,0,1,58.27,58.27Z"/><path class="cls-3" d="M995.51,1365.33c-14.06,14-5.08,39.89,16.63,39.89h839.19c21.71,0,30.69-25.89,16.63-39.89Z"/><path class="cls-2" d="M1455,485.26l-69.37-38.35-49.53-168c-11-37.46-39.62-62.35-71.59-62.35h-320c-32,0-60.54,24.89-71.58,62.35l-49.54,168L754,485.26c-35.56,19.66-56.37,66.39-51,114.49L713.43,692a17.24,17.24,0,0,0,17.14,15.32H1477.8a18,18,0,0,0,17.87-16L1506,599.75C1511.37,551.65,1490.56,504.92,1455,485.26ZM871.31,461.94l49.33-154c6.67-20.79,22.79-34.43,40.73-34.43h291.68c18,0,34.09,13.67,40.74,34.5l49.12,153.9Z"/><path class="cls-4" d="M703.06,599.75l10.24,91.12a18.51,18.51,0,0,0,18.39,16.43H1475a21.16,21.16,0,0,0,21-18.8l10-88.75a135.5,135.5,0,0,0,.69-20.39H702.37A135.5,135.5,0,0,0,703.06,599.75Z"/><g class="cls-5"><rect class="cls-6" x="-261.24" y="459.1" width="1067.91" height="5.68" transform="translate(-263.72 463.33) rotate(-59.59)"/><rect class="cls-6" x="-230.02" y="459.1" width="1067.91" height="5.68" transform="translate(-248.3 490.34) rotate(-59.6)"/><rect class="cls-6" x="-198.79" y="459.1" width="1067.91" height="5.68" transform="translate(-232.88 517.19) rotate(-59.59)"/><rect class="cls-6" x="-167.57" y="459.1" width="1067.91" height="5.68" transform="translate(-217.46 544.12) rotate(-59.59)"/><rect class="cls-6" x="-136.34" y="459.1" width="1067.91" height="5.68" transform="translate(-202.02 571.13) rotate(-59.6)"/><rect class="cls-6" x="-105.12" y="459.1" width="1067.91" height="5.68" transform="translate(-186.62 597.98) rotate(-59.59)"/><rect class="cls-6" x="-73.9" y="459.1" width="1067.91" height="5.68" transform="translate(-171.2 624.91) rotate(-59.59)"/><rect class="cls-6" x="-42.67" y="459.1" width="1067.91" height="5.68" transform="translate(-155.75 651.93) rotate(-59.6)"/><rect class="cls-6" x="-11.45" y="459.1" width="1067.91" height="5.68" transform="translate(-140.33 678.86) rotate(-59.6)"/><rect class="cls-6" x="19.78" y="459.1" width="1067.91" height="5.68" transform="translate(-124.94 705.69) rotate(-59.59)"/><rect class="cls-6" x="51" y="459.1" width="1067.91" height="5.68" transform="translate(-109.48 732.72) rotate(-59.6)"/><rect class="cls-6" x="82.22" y="459.1" width="1067.91" height="5.68" transform="translate(-94.06 759.65) rotate(-59.6)"/><rect class="cls-6" x="113.45" y="459.1" width="1067.91" height="5.68" transform="translate(-78.68 786.48) rotate(-59.59)"/><rect class="cls-6" x="144.67" y="459.1" width="1067.91" height="5.68" transform="translate(-63.26 813.41) rotate(-59.59)"/><rect class="cls-6" x="175.9" y="459.1" width="1067.91" height="5.68" transform="translate(-47.78 840.45) rotate(-59.6)"/><rect class="cls-6" x="207.12" y="459.1" width="1067.91" height="5.68" transform="translate(-32.42 867.27) rotate(-59.59)"/><rect class="cls-6" x="238.34" y="459.1" width="1067.91" height="5.68" transform="translate(-17 894.19) rotate(-59.59)"/><rect class="cls-6" x="269.57" y="459.1" width="1067.91" height="5.68" transform="translate(-1.51 921.24) rotate(-59.6)"/><rect class="cls-6" x="300.79" y="459.1" width="1067.91" height="5.68" transform="translate(13.84 948.05) rotate(-59.59)"/><rect class="cls-6" x="332.02" y="459.1" width="1067.91" height="5.68" transform="translate(29.26 974.98) rotate(-59.59)"/><rect class="cls-6" x="363.24" y="459.1" width="1067.91" height="5.68" transform="translate(44.76 1002.04) rotate(-59.6)"/><rect class="cls-6" x="394.46" y="459.1" width="1067.91" height="5.68" transform="translate(60.1 1028.85) rotate(-59.59)"/><rect class="cls-6" x="425.69" y="459.1" width="1067.91" height="5.68" transform="translate(75.52 1055.77) rotate(-59.59)"/><rect class="cls-6" x="456.91" y="459.1" width="1067.91" height="5.68" transform="translate(91.03 1082.83) rotate(-59.6)"/><rect class="cls-6" x="488.14" y="459.1" width="1067.91" height="5.68" transform="translate(106.36 1109.62) rotate(-59.59)"/><rect class="cls-6" x="519.36" y="459.1" width="1067.91" height="5.68" transform="translate(121.78 1136.56) rotate(-59.59)"/><rect class="cls-6" x="550.58" y="459.1" width="1067.91" height="5.68" transform="translate(137.3 1163.62) rotate(-59.6)"/><rect class="cls-6" x="581.81" y="459.1" width="1067.91" height="5.68" transform="translate(152.73 1190.56) rotate(-59.6)"/><rect class="cls-6" x="613.03" y="459.1" width="1067.91" height="5.68" transform="translate(168.05 1217.35) rotate(-59.59)"/><rect class="cls-6" x="644.26" y="459.1" width="1067.91" height="5.68" transform="translate(183.57 1244.42) rotate(-59.6)"/><rect class="cls-6" x="675.48" y="459.1" width="1067.91" height="5.68" transform="translate(199 1271.35) rotate(-59.6)"/><rect class="cls-6" x="706.7" y="459.1" width="1067.91" height="5.68" transform="translate(214.3 1298.12) rotate(-59.59)"/><rect class="cls-6" x="737.93" y="459.1" width="1067.91" height="5.68" transform="translate(229.84 1325.21) rotate(-59.6)"/><rect class="cls-6" x="769.15" y="459.1" width="1067.91" height="5.68" transform="translate(245.27 1352.14) rotate(-59.6)"/><rect class="cls-6" x="800.38" y="459.1" width="1067.91" height="5.68" transform="translate(260.56 1378.92) rotate(-59.59)"/><rect class="cls-6" x="831.6" y="459.1" width="1067.91" height="5.68" transform="translate(275.99 1405.85) rotate(-59.59)"/><rect class="cls-6" x="862.82" y="459.1" width="1067.91" height="5.68" transform="translate(291.54 1432.94) rotate(-59.6)"/><rect class="cls-6" x="894.05" y="459.1" width="1067.91" height="5.68" transform="translate(306.82 1459.71) rotate(-59.59)"/><rect class="cls-6" x="925.27" y="459.1" width="1067.91" height="5.68" transform="translate(322.23 1486.63) rotate(-59.59)"/><rect class="cls-6" x="956.5" y="459.1" width="1067.91" height="5.68" transform="translate(337.81 1513.72) rotate(-59.6)"/><rect class="cls-6" x="987.72" y="459.1" width="1067.91" height="5.68" transform="translate(353.08 1540.49) rotate(-59.59)"/><rect class="cls-6" x="1018.94" y="459.1" width="1067.91" height="5.68" transform="translate(368.5 1567.42) rotate(-59.59)"/><rect class="cls-6" x="1050.17" y="459.1" width="1067.91" height="5.68" transform="translate(384.09 1594.53) rotate(-59.6)"/><rect class="cls-6" x="1081.39" y="459.1" width="1067.91" height="5.68" transform="translate(399.35 1621.29) rotate(-59.59)"/><rect class="cls-6" x="1112.62" y="459.1" width="1067.91" height="5.68" transform="translate(414.76 1648.21) rotate(-59.59)"/><rect class="cls-6" x="1143.84" y="459.1" width="1067.91" height="5.68" transform="translate(430.36 1675.32) rotate(-59.6)"/><rect class="cls-6" x="1175.06" y="459.1" width="1067.91" height="5.68" transform="matrix(0.51, -0.86, 0.86, 0.51, 445.59, 1702.06)"/><rect class="cls-6" x="1206.29" y="459.1" width="1067.91" height="5.68" transform="translate(461.02 1729) rotate(-59.59)"/></g><path class="cls-3" d="M713.37,691.44a17.85,17.85,0,0,0,17.75,15.86h744.81a20.08,20.08,0,0,0,20-17.83l5.25-46.76H707.89Z"/><path class="cls-6" d="M809.88,499.14a71.79,71.79,0,1,0,71.78,71.79A71.79,71.79,0,0,0,809.88,499.14Z"/><path class="cls-7" d="M809.88,523.58a47.35,47.35,0,1,0,47.34,47.35A47.35,47.35,0,0,0,809.88,523.58Z"/><path class="cls-6" d="M1401.52,499.14a71.79,71.79,0,1,0,71.78,71.79A71.79,71.79,0,0,0,1401.52,499.14Z"/><path class="cls-7" d="M1401.52,523.58a47.35,47.35,0,1,0,47.34,47.35A47.34,47.34,0,0,0,1401.52,523.58Z"/><path class="cls-2" d="M762.53,777.08a40.31,40.31,0,0,0,40.2,40.19h62.39a40.3,40.3,0,0,0,40.19-40.19V721.72H762.53Z"/><path class="cls-2" d="M1282.78,777.08a40.31,40.31,0,0,0,40.2,40.19h62.39a40.31,40.31,0,0,0,40.2-40.19V721.72H1282.78Z"/><path class="cls-2" d="M831.11,384.41a25.08,25.08,0,0,0-14.7-4.92h-31.9c-15.52,0-28.1,15.71-28.1,35.09,0,13.36,6.81,25.23,16.93,29.53l51.68,22,22.62-35.55-4.38-37.37Z"/><path class="cls-2" d="M1425.6,379.49h-31.89a25.11,25.11,0,0,0-14.71,4.92l-12.15,8.75-4.38,37.37,22.63,35.55,51.68-22c10.12-4.3,16.92-16.17,16.92-29.53C1453.7,395.2,1441.12,379.49,1425.6,379.49Z"/><path class="cls-3" d="M1684.39,216.79h-97.15a37.78,37.78,0,0,0-37.78,37.78v97.15a37.77,37.77,0,0,0,37.78,37.78h97.15a37.78,37.78,0,0,0,37.78-37.78V254.57A37.79,37.79,0,0,0,1684.39,216.79Zm-57.7,130-51.63-58.08,12.91,1.07,37.65,28,55.93-57h17.22Z"/><path class="cls-3" d="M2022.3,375.58h-97.15a37.78,37.78,0,0,0-37.78,37.79v97.15a37.78,37.78,0,0,0,37.78,37.78h97.15a37.78,37.78,0,0,0,37.78-37.78V413.37A37.78,37.78,0,0,0,2022.3,375.58Zm-57.7,130L1913,447.48l12.91,1.08,37.65,28,55.94-57h17.21Z"/><path class="cls-3" d="M1787.29,635.36h-97.16a37.79,37.79,0,0,0-37.78,37.78v97.15a37.78,37.78,0,0,0,37.78,37.78h97.16a37.78,37.78,0,0,0,37.78-37.78V673.14A37.79,37.79,0,0,0,1787.29,635.36Zm-57.7,130L1678,707.25l12.9,1.08,37.65,28,55.94-57h17.21Z"/><path class="cls-3" d="M2131.55,683.14H2034.4a37.77,37.77,0,0,0-37.78,37.78v97.15a37.77,37.77,0,0,0,37.78,37.78h97.15a37.77,37.77,0,0,0,37.78-37.78V720.92A37.77,37.77,0,0,0,2131.55,683.14Zm-57.69,130L2022.22,755l12.91,1.08,37.65,28,55.94-57h17.21Z"/><rect class="cls-3" x="1376.43" y="294.98" width="141.01" height="16.34"/><polygon class="cls-3" points="1781.13 457.92 1506.81 457.92 1506.81 474.25 1797.47 474.25 1797.47 297.67 1965.55 297.67 1965.55 350.47 1981.89 350.47 1981.89 281.34 1781.13 281.34 1781.13 457.92"/><polygon class="cls-3" points="1560.63 547.92 1721.42 547.92 1721.42 612.18 1737.76 612.18 1737.76 531.58 1560.63 531.58 1560.63 547.92"/><polygon class="cls-3" points="1861.16 879.67 1089.88 879.67 1089.88 745.55 1073.54 745.55 1073.54 896.01 1877.49 896.01 1877.49 777.67 1959.52 777.67 1959.52 761.33 1861.16 761.33 1861.16 879.67"/></g></g></svg>