<svg xmlns="http://www.w3.org/2000/svg" viewBox="0 0 778.31 776.89"><defs><style>.cls-1{fill:#0089bf;}.cls-2{fill:#003f59;}.cls-3{fill:#2cc1ff;}</style></defs><title>airbag</title><g id="Layer_2" data-name="Layer 2"><g id="Icon"><polygon class="cls-1" points="0 292.26 22.77 356.44 72.31 338.83 41.4 274.65 0 292.26"/><path class="cls-1" d="M696,283.29a49.23,49.23,0,0,0-38.79,10.95L525.63,404.38a49.24,49.24,0,0,0-16,25.37L472.71,571.66a49.23,49.23,0,0,1-58.8,35.57l-155-36.06a49.15,49.15,0,0,0-23.62.33L125.12,600.35A49.23,49.23,0,0,0,97,675.85l54.76,79.69a49.24,49.24,0,0,0,40.57,21.35H523.2a49.23,49.23,0,0,0,46.21-32.27L672.8,463a50.67,50.67,0,0,1,3.22-7L731.79,356A49.23,49.23,0,0,0,696,283.29Z"/><path class="cls-2" d="M666.07,371.67a388.12,388.12,0,0,0-76.86,128L529.62,664.29a67.31,67.31,0,0,1-63.3,44.41H119.59l32.18,46.84a49.24,49.24,0,0,0,40.57,21.35H523.2a49.23,49.23,0,0,0,46.21-32.27L672.8,463a50.67,50.67,0,0,1,3.22-7L731.79,356a49.08,49.08,0,0,0-3.44-53.3Z"/><path class="cls-1" d="M732.92,127a17,17,0,0,0-27.84,6.51,250,250,0,0,0-13.86,67.21l-4.57,69.56,34.15,6.43a34.49,34.49,0,0,0,39.83-25.54l17.17-68.82a17,17,0,0,0-4.65-16.3Z"/><rect class="cls-3" x="258.17" y="694.19" width="147" height="33.6" rx="14.5"/><path class="cls-2" d="M62.29,217.2a25.6,25.6,0,1,0-48.51,16.37L71.07,403.34A25.6,25.6,0,1,0,119.58,387Z"/><path class="cls-1" d="M150.46,19.9C51.79,57.86,75.75,238,113.33,331.11c0,0,58.38,194,146.43,204.76s262-6,240.25-272.41C475.88-31.45,249.14-18,150.46,19.9Z"/><path class="cls-3" d="M291.28,67.34s173.07,11.58,159.2,289.11C450.48,356.45,504.55,73.29,291.28,67.34Z"/><path class="cls-3" d="M390.67,464.6s49,21.5,47.78-65.7C438.45,398.9,425.31,459.82,390.67,464.6Z"/></g></g></svg>