<svg xmlns="http://www.w3.org/2000/svg" viewBox="0 0 74.07 54.43"><defs><style>.a{fill:#ce5ea3;}.a,.b,.c,.d,.e{stroke:#3f1020;stroke-miterlimit:10;}.b{fill:none;}.c{fill:#3a77bc;}.d{fill:#7c4243;}.e{fill:#5d489d;}</style></defs><title>Asset 1</title><path class="a" d="M37,27.21c-8,0-15-5.36-18.8-13.36A31,31,0,0,1,15.31.5,18.57,18.57,0,0,1,26.17,4.09C32.68,8.7,37,17.33,37,27.21Z"/><path class="b" d="M58.75.5a31,31,0,0,1-2.92,13.35c-3.76,8-10.77,13.36-18.8,13.36C37,17.33,41.38,8.7,47.89,4.09A18.57,18.57,0,0,1,58.75.5Z"/><path class="a" d="M35.94,27.2A78.7,78.7,0,0,1,.57,18.73a36.81,36.81,0,0,1,2.89-8.1A42.22,42.22,0,0,0,35.94,27.2Z"/><path class="b" d="M37,27.21C37,17.33,41.38,8.7,47.89,4.09A18.57,18.57,0,0,1,58.75.5a31,31,0,0,1-2.92,13.35C52.07,21.85,45.06,27.21,37,27.21Z"/><path class="c" d="M73.49,18.73A78.7,78.7,0,0,1,38.12,27.2,42.22,42.22,0,0,0,70.6,10.63,36.81,36.81,0,0,1,73.49,18.73Z"/><path class="b" d="M37,27.21c0,9.88-4.35,18.52-10.86,23.13a18.57,18.57,0,0,1-10.86,3.59,31.06,31.06,0,0,1,2.92-13.35C22,32.58,29,27.21,37,27.21Z"/><path class="b" d="M58.75,53.93a18.57,18.57,0,0,1-10.86-3.59C41.38,45.73,37,37.09,37,27.21c8,0,15,5.37,18.8,13.37A31.06,31.06,0,0,1,58.75,53.93Z"/><path class="d" d="M35.94,27.22A42.23,42.23,0,0,0,3.46,43.78a36.81,36.81,0,0,1-2.89-8.1A78.69,78.69,0,0,1,35.94,27.22Z"/><path class="d" d="M37,27.21c0,9.88-4.35,18.52-10.86,23.13a18.57,18.57,0,0,1-10.86,3.59,31.06,31.06,0,0,1,2.92-13.35C22,32.58,29,27.21,37,27.21Z"/><path class="e" d="M55.83,40.58a31.06,31.06,0,0,1,2.92,13.35,18.57,18.57,0,0,1-10.86-3.59C41.38,45.73,37,37.09,37,27.21,45.06,27.21,52.07,32.58,55.83,40.58Z"/><path class="e" d="M73.49,35.68a36.81,36.81,0,0,1-2.89,8.1A42.23,42.23,0,0,0,38.12,27.22,78.69,78.69,0,0,1,73.49,35.68Z"/><path class="c" d="M37,27.21C37,17.33,41.38,8.7,47.89,4.09A18.57,18.57,0,0,1,58.75.5a31,31,0,0,1-2.92,13.35C52.07,21.85,45.06,27.21,37,27.21Z"/></svg>