<svg xmlns="http://www.w3.org/2000/svg" viewBox="0 0 1870.06 1459.42"><defs><style>.cls-1{fill:#0089bf;}.cls-2{fill:#2cc1ff;}.cls-3{fill:#003f59;}</style></defs><title>car painting</title><g id="Layer_2" data-name="Layer 2"><g id="Icon"><path class="cls-1" d="M1867.25,404.63a18.89,18.89,0,0,0-37.49-4.67c-.27,2.14-26.43,218.78-.1,593.41,11.67,166-15.4,285.56-80.45,355.33-45.1,48.39-108.75,72.93-189.19,72.93-120.73,0-140.45-195-140.63-196.91a18.89,18.89,0,0,0-37.62,3.49c.86,9.44,23.14,231.21,178.25,231.21,91.34,0,164.29-28.58,216.83-85,72.49-77.76,102.94-206.87,90.5-383.76C1841.31,620.18,1867,406.74,1867.25,404.63Z"/><rect class="cls-2" x="274.45" y="605.66" width="110.46" height="90.32"/><polygon class="cls-1" points="728.71 535.08 796.88 535.08 876.31 436.32 827.47 412.44 728.71 535.08"/><path class="cls-3" d="M1607.8,558H1585v85.88h-79v36.67h79v82h22.79a10,10,0,0,0,10-10V568A10,10,0,0,0,1607.8,558Z"/><path class="cls-1" d="M341,616.38v72.27a63.07,63.07,0,0,0,42.85,59.74l238,80.57V501.2l-232,53.74A63.07,63.07,0,0,0,341,616.38Z"/><path class="cls-1" d="M1504,560,1379.3,448H1046v33.78H962.31v47.54H759.46V481.81l-92.57-22.52V862.11l92.57-22.51V792.06H962.31V839.6H1046v33.77H1379.3L1498.67,784A77.55,77.55,0,0,0,1529.74,722V617.71A77.51,77.51,0,0,0,1504,560Z"/><path class="cls-3" d="M341,688.65a63.07,63.07,0,0,0,42.85,59.74l238,80.57V660.7H341Z"/><path class="cls-3" d="M666.89,694.48V862.11l92.57-22.51V792.06H962.31V839.6H1046v33.77H1379.3L1498.67,784A77.55,77.55,0,0,0,1529.74,722V660.7H666.89Z"/><rect class="cls-3" x="1017.37" y="481.81" width="28.61" height="357.79"/><rect class="cls-3" x="759.43" y="529.09" width="74.91" height="262.38"/><path class="cls-2" d="M1115,481.81a32.21,32.21,0,0,0-32.11,32.11V807.49a32.11,32.11,0,1,0,64.22,0V513.92A32.21,32.21,0,0,0,1115,481.81Z"/><path class="cls-3" d="M1401.29,767,1185.67,829l12.12,44.41-5.15,34.89A79.37,79.37,0,0,0,1224,983.68l3.92,2.89-3.31,22.41a79.33,79.33,0,0,0,30.67,74.9l.47,1.71-3.08,20.8a79.36,79.36,0,0,0,28.77,73.39l19.61,71.87a18.94,18.94,0,0,0,10.29,11.7l21.1,9.55a121.61,121.61,0,0,0,155.51-50.12,18.93,18.93,0,0,0,2.19-13Z"/><path class="cls-3" d="M793.43,247.32c-45.33,45.33-45.33,119.5,0,164.82l35.67,35.67c45.32,45.33,119.49,45.33,164.82,0l205.45-205.45L998.88,41.87Z"/><rect class="cls-1" x="1078.22" y="-33.81" width="48.31" height="347.51" transform="translate(223.92 820.49) rotate(-45)"/><path class="cls-2" d="M795.4,370.35a109.31,109.31,0,0,0,29.14,46l11.58,11c23.19,22.05,54.8,33.92,86.6,30.39C968.8,452.64,989.18,420,989.18,420l157.92-158.2H809C781.21,300.15,786.54,342.43,795.4,370.35Z"/><path class="cls-2" d="M236.39,635a12.87,12.87,0,1,0,12.88,12.87A12.87,12.87,0,0,0,236.39,635Z"/><path class="cls-2" d="M191.69,635a12.87,12.87,0,1,0,12.87,12.87A12.87,12.87,0,0,0,191.69,635Z"/><path class="cls-2" d="M147,635a12.87,12.87,0,1,0,12.88,12.87A12.87,12.87,0,0,0,147,635Z"/><path class="cls-2" d="M102.28,635a12.87,12.87,0,1,0,12.87,12.87A12.87,12.87,0,0,0,102.28,635Z"/><path class="cls-2" d="M57.58,635a12.87,12.87,0,1,0,12.87,12.87A12.88,12.88,0,0,0,57.58,635Z"/><path class="cls-2" d="M12.87,635a12.87,12.87,0,1,0,12.87,12.87A12.87,12.87,0,0,0,12.87,635Z"/><path class="cls-2" d="M243.2,601.18a12.87,12.87,0,1,0,5,17.51A12.86,12.86,0,0,0,243.2,601.18Z"/><path class="cls-2" d="M204.18,579.37a12.87,12.87,0,1,0,5,17.52A12.87,12.87,0,0,0,204.18,579.37Z"/><path class="cls-2" d="M165.16,557.56a12.88,12.88,0,1,0,5,17.52A12.89,12.89,0,0,0,165.16,557.56Z"/><path class="cls-2" d="M126.13,535.76a12.87,12.87,0,1,0,5,17.51A12.87,12.87,0,0,0,126.13,535.76Z"/><path class="cls-2" d="M87.11,514a12.87,12.87,0,1,0,5,17.51A12.87,12.87,0,0,0,87.11,514Z"/><path class="cls-2" d="M48.08,492.14a12.87,12.87,0,1,0,5,17.52A12.86,12.86,0,0,0,48.08,492.14Z"/><path class="cls-2" d="M230.75,676.76a12.87,12.87,0,1,0,16.42,7.84A12.86,12.86,0,0,0,230.75,676.76Z"/><path class="cls-2" d="M188.6,691.68A12.87,12.87,0,1,0,205,699.52,12.88,12.88,0,0,0,188.6,691.68Z"/><path class="cls-2" d="M146.46,706.6a12.87,12.87,0,1,0,16.43,7.83A12.87,12.87,0,0,0,146.46,706.6Z"/><path class="cls-2" d="M104.32,721.51a12.87,12.87,0,1,0,16.43,7.84A12.88,12.88,0,0,0,104.32,721.51Z"/><path class="cls-2" d="M62.18,736.43a12.87,12.87,0,1,0,16.42,7.84A12.86,12.86,0,0,0,62.18,736.43Z"/><path class="cls-2" d="M20,751.34a12.87,12.87,0,1,0,16.43,7.84A12.88,12.88,0,0,0,20,751.34Z"/></g></g></svg>