<svg xmlns="http://www.w3.org/2000/svg" viewBox="0 0 1825.32 1294.1"><defs><style>.cls-1{fill:#2cc1ff;}.cls-2{fill:#0089bf;}.cls-3{fill:#003f59;}.cls-4{fill:#fff;}</style></defs><title>car toe</title><g id="Layer_2" data-name="Layer 2"><g id="Icon"><rect class="cls-1" x="1725.51" y="95.7" width="8.21" height="490.5"/><polygon class="cls-2" points="984.8 191.4 1160.99 191.4 1729.62 123.79 1729.62 35.43 984.8 35.43 984.8 191.4"/><polygon class="cls-3" points="984.8 153 1021.72 191.4 1160.99 191.4 1729.62 123.78 1729.62 72.51 984.8 72.51 984.8 153"/><polygon class="cls-2" points="1051.22 95.7 910.37 95.7 910.37 194.25 860.29 194.25 860.29 838.9 1164.85 832.62 1113.21 192.55 1051.22 95.7"/><polygon class="cls-3" points="910.37 194.25 860.29 194.25 860.29 838.9 1006.78 835.88 1006.78 95.7 910.37 95.7 910.37 194.25"/><path class="cls-2" d="M1557.86,833.7H794.08l-43-226.16a105.45,105.45,0,0,0-103.6-85.75H355.64L279.32,762.43,63,828.07A88.64,88.64,0,0,0,9.54,952.81l81.55,161.68a108.72,108.72,0,0,0,97.08,59.77H271.5a180,180,0,0,1,360,0h380.9a180,180,0,0,1,360,0h115.46a85,85,0,0,0,80.5-57.84l61.51-182.58C1646.37,884.64,1609.77,833.7,1557.86,833.7ZM475,756.93l-23.54-57.67-73.85-5.68,29.23-100.83L655.72,597a20.76,20.76,0,0,1,20.17,17.63l21.72,142.33Z"/><path class="cls-1" d="M9.54,952.81l81.55,161.68a108.72,108.72,0,0,0,97.08,59.77H271.5a180,180,0,0,1,360,0h380.9a180,180,0,0,1,360,0h115.46a85,85,0,0,0,80.5-57.84l61.51-182.58a76.32,76.32,0,0,0,3.78-18.28H.08A88,88,0,0,0,9.54,952.81Z"/><path class="cls-2" d="M477.53,1036.21v67.35a60.22,60.22,0,0,0-38.55-1V1036a129.66,129.66,0,0,0-87.28,203.24l50.6-52.58a60.72,60.72,0,0,0,26.92,27.63l-50.8,52.79a129.59,129.59,0,0,0,160.67-1.85l-55.53-50.5a60.77,60.77,0,0,0,27.4-27.2l54.21,49.31a129.75,129.75,0,0,0-87.64-200.66Z"/><path class="cls-2" d="M457.58,1126.18a36.59,36.59,0,1,0,36.58,36.59A36.59,36.59,0,0,0,457.58,1126.18Z"/><path class="cls-3" d="M477.53,1072.1v31.46a60.22,60.22,0,0,0-38.55-1v-30.32a92.84,92.84,0,0,0-60.13,138.84l23.45-24.37a60.72,60.72,0,0,0,26.92,27.63l-24.05,25a92.77,92.77,0,0,0,106,.51l-27.56-25.06a60.77,60.77,0,0,0,27.4-27.2l26.68,24.27a92.85,92.85,0,0,0-60.11-139.73Zm-19.95,127.25a36.59,36.59,0,1,1,36.58-36.58A36.59,36.59,0,0,1,457.58,1199.35Z"/><path class="cls-2" d="M1224.41,1036.21v67.35a60.25,60.25,0,0,0-38.56-1V1036a129.66,129.66,0,0,0-87.28,203.24l50.6-52.58a60.77,60.77,0,0,0,26.92,27.63l-50.8,52.79a129.59,129.59,0,0,0,160.67-1.85l-55.53-50.5a60.72,60.72,0,0,0,27.4-27.2l54.21,49.31a129.75,129.75,0,0,0-87.63-200.66Z"/><path class="cls-2" d="M1204.45,1126.18a36.59,36.59,0,1,0,36.59,36.59A36.59,36.59,0,0,0,1204.45,1126.18Z"/><path class="cls-3" d="M1224.41,1072.1v31.46a60.25,60.25,0,0,0-38.56-1v-30.32a92.84,92.84,0,0,0-60.13,138.84l23.45-24.37a60.77,60.77,0,0,0,26.92,27.63l-24,25a92.77,92.77,0,0,0,106,.51l-27.56-25.06a60.72,60.72,0,0,0,27.4-27.2l26.69,24.27a92.87,92.87,0,0,0-60.11-139.73Zm-20,127.25a36.59,36.59,0,1,1,36.59-36.58A36.59,36.59,0,0,1,1204.45,1199.35Z"/><path class="cls-3" d="M631.46,1174.26h380.9A179.58,179.58,0,0,1,1077.1,1036H566.72A179.61,179.61,0,0,1,631.46,1174.26Z"/><path class="cls-3" d="M1372.32,1174.26h115.46a85,85,0,0,0,80.5-57.84l27.09-80.39H1307.58A179.61,179.61,0,0,1,1372.32,1174.26Z"/><path class="cls-3" d="M91.09,1114.49a108.72,108.72,0,0,0,97.08,59.77H271.5A179.58,179.58,0,0,1,336.24,1036H51.51Z"/><circle class="cls-3" cx="984.8" cy="95.7" r="95.7" transform="translate(4.22 227.79) rotate(-13.22)"/><path class="cls-3" d="M996.71,18.85V59a35.9,35.9,0,0,0-23-.61V18.74A77.34,77.34,0,0,0,921.65,140l30.18-31.36a36.24,36.24,0,0,0,16.06,16.48l-30.3,31.48a77.29,77.29,0,0,0,95.83-1.1l-33.12-30.12a36.23,36.23,0,0,0,16.34-16.22l32.33,29.4A77.38,77.38,0,0,0,996.71,18.85Z"/><path class="cls-4" d="M984.8,72.51a21.82,21.82,0,1,0,21.82,21.82A21.82,21.82,0,0,0,984.8,72.51Z"/><path class="cls-1" d="M984.8,35.43a60.27,60.27,0,1,0,60.27,60.27A60.27,60.27,0,0,0,984.8,35.43Zm21.93,19a6.45,6.45,0,1,1,1.84,8.94A6.45,6.45,0,0,1,1006.73,54.41Zm-20-11.36a6.45,6.45,0,1,1-6.45,6.45A6.45,6.45,0,0,1,986.7,43.05Zm-27,6.61a6.45,6.45,0,1,1-2.3,8.82A6.46,6.46,0,0,1,959.67,49.66ZM940,68.34a6.45,6.45,0,1,1,2.35,8.81A6.44,6.44,0,0,1,940,68.34ZM932.17,97.8a6.46,6.46,0,1,1,6.82,6.07A6.45,6.45,0,0,1,932.17,97.8ZM950.84,128a6.45,6.45,0,1,1,1.33-9A6.45,6.45,0,0,1,950.84,128ZM974,141.73a6.45,6.45,0,1,1-3.85-8.27A6.45,6.45,0,0,1,974,141.73Zm22.1,6.45a6.45,6.45,0,1,1,4.79-7.76A6.45,6.45,0,0,1,996.13,148.18ZM984.8,129.59a33.89,33.89,0,1,1,33.89-33.89A33.89,33.89,0,0,1,984.8,129.59Zm38.13,4.07a6.45,6.45,0,1,1-.26-9.12A6.45,6.45,0,0,1,1022.93,133.66Zm14.41-26.86a6.45,6.45,0,1,1-5.23-7.48A6.44,6.44,0,0,1,1037.34,106.8Zm-2.72-30.36a6.45,6.45,0,1,1-8.48-3.37A6.44,6.44,0,0,1,1034.62,76.44Z"/><circle class="cls-3" cx="1729.62" cy="95.7" r="95.7" transform="translate(438.92 1251.05) rotate(-45)"/><path class="cls-3" d="M1741.52,18.85V59a35.9,35.9,0,0,0-23-.61V18.74a77.33,77.33,0,0,0-52,121.22l30.18-31.36a36.22,36.22,0,0,0,16,16.48l-30.3,31.48a77.29,77.29,0,0,0,95.83-1.1l-33.12-30.12a36.18,36.18,0,0,0,16.34-16.22l32.33,29.4a77.37,77.37,0,0,0-52.26-119.67Z"/><path class="cls-4" d="M1729.62,72.51a21.82,21.82,0,1,0,21.82,21.82A21.82,21.82,0,0,0,1729.62,72.51Z"/><path class="cls-1" d="M1729.62,35.43a60.27,60.27,0,1,0,60.26,60.27A60.27,60.27,0,0,0,1729.62,35.43Zm21.92,19a6.45,6.45,0,1,1,1.84,8.94A6.45,6.45,0,0,1,1751.54,54.41Zm-20-11.36a6.45,6.45,0,1,1-6.46,6.45A6.45,6.45,0,0,1,1731.52,43.05Zm-27,6.61a6.45,6.45,0,1,1-2.3,8.82A6.46,6.46,0,0,1,1704.48,49.66Zm-19.65,18.68a6.45,6.45,0,1,1,2.35,8.81A6.44,6.44,0,0,1,1684.83,68.34ZM1677,97.8a6.45,6.45,0,1,1,6.81,6.07A6.44,6.44,0,0,1,1677,97.8ZM1695.65,128a6.45,6.45,0,1,1,1.33-9A6.44,6.44,0,0,1,1695.65,128Zm23.19,13.69a6.45,6.45,0,1,1-3.85-8.27A6.45,6.45,0,0,1,1718.84,141.73Zm22.1,6.45a6.45,6.45,0,1,1,4.79-7.76A6.46,6.46,0,0,1,1740.94,148.18Zm-11.32-18.59A33.89,33.89,0,1,1,1763.5,95.7,33.89,33.89,0,0,1,1729.62,129.59Zm38.12,4.07a6.45,6.45,0,1,1-.26-9.12A6.45,6.45,0,0,1,1767.74,133.66Zm14.42-26.86a6.45,6.45,0,1,1-5.24-7.48A6.45,6.45,0,0,1,1782.16,106.8Zm-2.73-30.36a6.45,6.45,0,1,1-8.47-3.37A6.44,6.44,0,0,1,1779.43,76.44Z"/><path class="cls-1" d="M1765.33,575.3h-71.09l.47,55.27c0,43.57,24.79,45.07,24.79,45.07H1742c29.3,0,23.29-46.57,23.29-46.57Z"/><path class="cls-3" d="M1765.33,609.53h-70.8l.18,21c0,43.57,24.79,45.07,24.79,45.07H1742c29.3,0,23.29-46.57,23.29-46.57Z"/><path class="cls-3" d="M1734.14,686.67V667.38a4.11,4.11,0,0,0-8.21,0l0,27.64,4.34-.25c.1,0,11.86-.58,19.54,6.66,4.63,4.38,7,10.87,7,19.29,0,5.22-1.57,9.22-4.78,12.23-7.51,7-21.46,6.18-21.85,6.2-.88,0-21.59-.27-21.59-22.94a4.11,4.11,0,0,0-8.22,0c0,24.62,19.48,31.14,29.51,31.14a12.47,12.47,0,0,0,2.11.06c4.94,0,17.46-.81,25.63-8.44,4.91-4.59,7.4-10.72,7.4-18.25,0-10.81-3.23-19.33-9.62-25.32C1748.4,688.84,1739.41,687.1,1734.14,686.67Z"/></g></g></svg>