<svg xmlns="http://www.w3.org/2000/svg" xmlns:xlink="http://www.w3.org/1999/xlink" viewBox="0 0 2888.65 988.48"><defs><style>.cls-1{fill:#2cc1ff;}.cls-2{fill:#0089bf;}.cls-3{clip-path:url(#clip-path);}.cls-4{fill:#28aee6;}.cls-5{fill:#003f59;}</style><clipPath id="clip-path"><path class="cls-1" d="M2271.4,438H512.88L610.7,613.42H853.78C878.5,537.69,949.66,483,1033.65,483s155.15,54.74,179.87,130.47H1681C1705.69,537.69,1776.85,483,1860.84,483S2016,537.69,2040.71,613.42h333.44Z"/></clipPath></defs><title>car</title><g id="Layer_2" data-name="Layer 2"><g id="Icon"><path class="cls-2" d="M1055.59,523.41V604a72.08,72.08,0,0,0-46.15-1.22V523.19A155.2,155.2,0,0,0,905,766.45l60.56-62.93a72.65,72.65,0,0,0,32.22,33.07L937,799.77a155.1,155.1,0,0,0,192.31-2.21l-66.46-60.45a72.65,72.65,0,0,0,32.79-32.55l64.88,59a155.28,155.28,0,0,0-104.89-240.16Zm-23.88,195.27a43.79,43.79,0,1,1,43.79-43.79A43.79,43.79,0,0,1,1031.71,718.68Zm1373.48-52.25L2233.05,372.48a12.06,12.06,0,0,0-10.41-6h-243a12,12,0,0,1-8.21-3.23L1703.9,114.74a12.05,12.05,0,0,0-7.47-3.2L1122.25,75.83a12.07,12.07,0,0,0-10.51,4.93l-196,269a12.1,12.1,0,0,1-9,4.94L499.75,378.87a12.06,12.06,0,0,0-9.83,17.91l157,281.62a12.08,12.08,0,0,0,10.54,6.19H832.38a12.15,12.15,0,0,0,12.06-12.31v-.12c0-104.5,84.71-189.21,189.21-189.21s189.21,84.71,189.21,189.21v.12a12.14,12.14,0,0,0,12.06,12.31h424.65a12.15,12.15,0,0,0,12.06-12.31v-.12c0-104.5,84.71-189.21,189.21-189.21s189.21,84.71,189.21,189.21v.12a12.14,12.14,0,0,0,12.06,12.31h332.67A12.06,12.06,0,0,0,2405.19,666.43ZM1416.87,371.54a8.47,8.47,0,0,1-8.47,8.46H1035.26a8.47,8.47,0,1,1,0-16.93h103.39a8.47,8.47,0,0,0,8.29-6.73l15.21-72.27a8.46,8.46,0,0,0-5.42-9.71l-76.88-27.68a8.46,8.46,0,0,1-4.45-12.21l65.95-102.85a8.47,8.47,0,0,1,8-4.2L1409.08,153a8.47,8.47,0,0,1,7.79,8.44Zm354,8.66H1500.27a13.37,13.37,0,0,1-13.36-13l-5.62-193.44A13.36,13.36,0,0,1,1494.65,160l175,9.7a13.37,13.37,0,0,1,11.85,7.17l101.23,183.73A13.37,13.37,0,0,1,1770.88,380.2Zm108.76,143.21V604a72.08,72.08,0,0,0-46.15-1.22V523.19A155.2,155.2,0,0,0,1729,766.45l60.56-62.93a72.65,72.65,0,0,0,32.22,33.07L1761,799.77a155.12,155.12,0,0,0,192.32-2.21l-66.46-60.45a72.7,72.7,0,0,0,32.79-32.55l64.88,59a155.28,155.28,0,0,0-104.89-240.16Zm-23.88,195.27a43.79,43.79,0,1,1,43.79-43.79A43.79,43.79,0,0,1,1855.76,718.68Z"/><path class="cls-1" d="M2271.4,438H512.88L610.7,613.42H853.78C878.5,537.69,949.66,483,1033.65,483s155.15,54.74,179.87,130.47H1681C1705.69,537.69,1776.85,483,1860.84,483S2016,537.69,2040.71,613.42h333.44Z"/><g class="cls-3"><rect class="cls-4" x="-279.5" y="491.2" width="1142.57" height="6.08" transform="translate(-282.16 495.77) rotate(-59.6)"/><rect class="cls-4" x="-246.1" y="491.2" width="1142.57" height="6.08" transform="translate(-265.66 524.55) rotate(-59.59)"/><rect class="cls-4" x="-212.69" y="491.2" width="1142.57" height="6.08" transform="translate(-249.16 553.37) rotate(-59.59)"/><rect class="cls-4" x="-179.28" y="491.2" width="1142.57" height="6.08" transform="matrix(0.51, -0.86, 0.86, 0.51, -232.66, 582.21)"/><rect class="cls-4" x="-145.88" y="491.2" width="1142.57" height="6.08" transform="translate(-216.16 610.99) rotate(-59.59)"/><rect class="cls-4" x="-112.47" y="491.2" width="1142.57" height="6.08" transform="translate(-199.65 639.84) rotate(-59.6)"/><rect class="cls-4" x="-79.06" y="491.2" width="1142.57" height="6.08" transform="matrix(0.51, -0.86, 0.86, 0.51, -183.16, 668.62)"/><rect class="cls-4" x="-45.65" y="491.2" width="1142.57" height="6.08" transform="translate(-166.65 697.46) rotate(-59.6)"/><rect class="cls-4" x="-12.25" y="491.2" width="1142.57" height="6.08" transform="translate(-150.17 726.24) rotate(-59.59)"/><rect class="cls-4" x="21.16" y="491.2" width="1142.57" height="6.08" transform="matrix(0.51, -0.86, 0.86, 0.51, -133.65, 755.09)"/><rect class="cls-4" x="54.57" y="491.2" width="1142.57" height="6.08" transform="matrix(0.51, -0.86, 0.86, 0.51, -117.17, 783.87)"/><rect class="cls-4" x="87.97" y="491.2" width="1142.57" height="6.08" transform="matrix(0.51, -0.86, 0.86, 0.51, -100.65, 812.72)"/><rect class="cls-4" x="121.38" y="491.2" width="1142.57" height="6.08" transform="matrix(0.51, -0.86, 0.86, 0.51, -84.17, 841.49)"/><rect class="cls-4" x="154.79" y="491.2" width="1142.57" height="6.08" transform="translate(-67.65 870.34) rotate(-59.6)"/><rect class="cls-4" x="188.19" y="491.2" width="1142.57" height="6.08" transform="translate(-51.17 899.11) rotate(-59.59)"/><rect class="cls-4" x="221.6" y="491.2" width="1142.57" height="6.08" transform="matrix(0.51, -0.86, 0.86, 0.51, -34.67, 927.93)"/><rect class="cls-4" x="255.01" y="491.2" width="1142.57" height="6.08" transform="translate(-18.15 956.78) rotate(-59.6)"/><rect class="cls-4" x="288.42" y="491.2" width="1142.57" height="6.08" transform="translate(-1.68 985.55) rotate(-59.59)"/><rect class="cls-4" x="321.82" y="491.2" width="1142.57" height="6.08" transform="matrix(0.51, -0.86, 0.86, 0.51, 14.85, 1014.41)"/><rect class="cls-4" x="355.23" y="491.2" width="1142.57" height="6.08" transform="translate(31.32 1043.17) rotate(-59.59)"/><rect class="cls-4" x="388.64" y="491.2" width="1142.57" height="6.08" transform="translate(47.85 1072.03) rotate(-59.6)"/><rect class="cls-4" x="422.04" y="491.2" width="1142.57" height="6.08" transform="matrix(0.51, -0.86, 0.86, 0.51, 64.32, 1100.8)"/><rect class="cls-4" x="455.45" y="491.2" width="1142.57" height="6.08" transform="translate(80.85 1129.66) rotate(-59.6)"/><rect class="cls-4" x="488.86" y="491.2" width="1142.57" height="6.08" transform="translate(97.32 1158.43) rotate(-59.59)"/><rect class="cls-4" x="522.26" y="491.2" width="1142.57" height="6.08" transform="translate(113.85 1187.29) rotate(-59.6)"/><rect class="cls-4" x="555.67" y="491.2" width="1142.57" height="6.08" transform="translate(130.32 1216.05) rotate(-59.59)"/><rect class="cls-4" x="589.08" y="491.2" width="1142.57" height="6.08" transform="translate(146.86 1244.92) rotate(-59.6)"/><rect class="cls-4" x="622.49" y="491.2" width="1142.57" height="6.08" transform="translate(163.31 1273.67) rotate(-59.59)"/><rect class="cls-4" x="655.89" y="491.2" width="1142.57" height="6.08" transform="translate(179.81 1302.48) rotate(-59.59)"/><rect class="cls-4" x="689.3" y="491.2" width="1142.57" height="6.08" transform="translate(196.36 1331.36) rotate(-59.6)"/><rect class="cls-4" x="722.71" y="491.2" width="1142.57" height="6.08" transform="translate(212.81 1360.11) rotate(-59.59)"/><rect class="cls-4" x="756.11" y="491.2" width="1142.57" height="6.08" transform="translate(229.36 1388.98) rotate(-59.6)"/><rect class="cls-4" x="789.52" y="491.2" width="1142.57" height="6.08" transform="translate(245.81 1417.73) rotate(-59.59)"/><rect class="cls-4" x="822.93" y="491.2" width="1142.57" height="6.08" transform="translate(262.36 1446.61) rotate(-59.6)"/><rect class="cls-4" x="856.34" y="491.2" width="1142.57" height="6.08" transform="translate(278.81 1475.36) rotate(-59.59)"/><rect class="cls-4" x="889.74" y="491.2" width="1142.57" height="6.08" transform="translate(295.36 1504.23) rotate(-59.6)"/><rect class="cls-4" x="923.15" y="491.2" width="1142.57" height="6.08" transform="translate(311.81 1532.99) rotate(-59.59)"/><rect class="cls-4" x="956.56" y="491.2" width="1142.57" height="6.08" transform="translate(328.36 1561.85) rotate(-59.6)"/><rect class="cls-4" x="989.96" y="491.2" width="1142.57" height="6.08" transform="translate(344.8 1590.61) rotate(-59.59)"/><rect class="cls-4" x="1023.37" y="491.2" width="1142.57" height="6.08" transform="translate(361.36 1619.49) rotate(-59.6)"/><rect class="cls-4" x="1056.78" y="491.2" width="1142.57" height="6.08" transform="translate(377.8 1648.23) rotate(-59.59)"/><rect class="cls-4" x="1090.18" y="491.2" width="1142.57" height="6.08" transform="translate(394.3 1677.04) rotate(-59.59)"/><rect class="cls-4" x="1123.59" y="491.2" width="1142.57" height="6.08" transform="translate(410.87 1705.93) rotate(-59.6)"/><rect class="cls-4" x="1157" y="491.2" width="1142.57" height="6.08" transform="translate(427.29 1734.66) rotate(-59.59)"/><rect class="cls-4" x="1190.41" y="491.2" width="1142.57" height="6.08" transform="translate(443.86 1763.55) rotate(-59.6)"/><rect class="cls-4" x="1223.81" y="491.2" width="1142.57" height="6.08" transform="translate(460.29 1792.29) rotate(-59.59)"/><rect class="cls-4" x="1257.22" y="491.2" width="1142.57" height="6.08" transform="translate(476.86 1821.18) rotate(-59.6)"/><rect class="cls-4" x="1290.63" y="491.2" width="1142.57" height="6.08" transform="translate(493.29 1849.92) rotate(-59.59)"/><rect class="cls-4" x="1324.03" y="491.2" width="1142.57" height="6.08" transform="translate(509.86 1878.8) rotate(-59.6)"/><rect class="cls-4" x="1357.44" y="491.2" width="1142.57" height="6.08" transform="translate(526.3 1907.55) rotate(-59.59)"/><rect class="cls-4" x="1390.85" y="491.2" width="1142.57" height="6.08" transform="translate(542.86 1936.42) rotate(-59.6)"/><rect class="cls-4" x="1424.25" y="491.2" width="1142.57" height="6.08" transform="translate(559.29 1965.17) rotate(-59.59)"/><rect class="cls-4" x="1457.66" y="491.2" width="1142.57" height="6.08" transform="translate(575.87 1994.06) rotate(-59.6)"/><rect class="cls-4" x="1491.07" y="491.2" width="1142.57" height="6.08" transform="translate(592.28 2022.78) rotate(-59.59)"/><rect class="cls-4" x="1524.48" y="491.2" width="1142.57" height="6.08" transform="translate(608.87 2051.68) rotate(-59.6)"/><rect class="cls-4" x="1557.88" y="491.2" width="1142.57" height="6.08" transform="matrix(0.51, -0.86, 0.86, 0.51, 625.37, 2080.5)"/><rect class="cls-4" x="1591.29" y="491.2" width="1142.57" height="6.08" transform="translate(641.77 2109.22) rotate(-59.59)"/><rect class="cls-4" x="1624.7" y="491.2" width="1142.57" height="6.08" transform="translate(658.37 2138.12) rotate(-59.6)"/><rect class="cls-4" x="1658.1" y="491.2" width="1142.57" height="6.08" transform="translate(674.78 2166.85) rotate(-59.59)"/><rect class="cls-4" x="1691.51" y="491.2" width="1142.57" height="6.08" transform="translate(691.37 2195.75) rotate(-59.6)"/><rect class="cls-4" x="1724.92" y="491.2" width="1142.57" height="6.08" transform="translate(707.78 2224.48) rotate(-59.59)"/><rect class="cls-4" x="1758.32" y="491.2" width="1142.57" height="6.08" transform="translate(724.37 2253.37) rotate(-59.6)"/><rect class="cls-4" x="1791.73" y="491.2" width="1142.57" height="6.08" transform="translate(740.78 2282.11) rotate(-59.59)"/><rect class="cls-4" x="1825.14" y="491.2" width="1142.57" height="6.08" transform="translate(757.36 2310.99) rotate(-59.6)"/><rect class="cls-4" x="1858.55" y="491.2" width="1142.57" height="6.08" transform="translate(773.77 2339.72) rotate(-59.59)"/><rect class="cls-4" x="1891.95" y="491.2" width="1142.57" height="6.08" transform="translate(790.38 2368.63) rotate(-59.6)"/><rect class="cls-4" x="1925.36" y="491.2" width="1142.57" height="6.08" transform="translate(806.76 2397.34) rotate(-59.59)"/><rect class="cls-4" x="1958.77" y="491.2" width="1142.57" height="6.08" transform="translate(823.37 2426.25) rotate(-59.6)"/><rect class="cls-4" x="1992.17" y="491.2" width="1142.57" height="6.08" transform="translate(839.88 2455.07) rotate(-59.6)"/><rect class="cls-4" x="2025.58" y="491.2" width="1142.57" height="6.08" transform="translate(856.26 2483.78) rotate(-59.59)"/></g><path class="cls-5" d="M2356.28,582.91H2027.7a188.37,188.37,0,0,1,22.35,89.25v.12a12.14,12.14,0,0,0,12.06,12.31h332.67a12.06,12.06,0,0,0,10.41-18.16Z"/><path class="cls-5" d="M646.92,678.4a12.08,12.08,0,0,0,10.54,6.19H832.38a12.15,12.15,0,0,0,12.06-12.31v-.12a188.37,188.37,0,0,1,22.35-89.25H593.69Z"/><path class="cls-5" d="M1222.86,672.16v.12a12.14,12.14,0,0,0,12.06,12.31h424.65a12.15,12.15,0,0,0,12.06-12.31v-.12A188.37,188.37,0,0,1,1694,582.91H1200.51A188.37,188.37,0,0,1,1222.86,672.16Z"/><path class="cls-5" d="M1055.59,566.36V604a72.08,72.08,0,0,0-46.15-1.22V566.5a111.12,111.12,0,0,0-72,166.18l28.06-29.16a72.65,72.65,0,0,0,32.22,33.07L969,766.5a111.05,111.05,0,0,0,126.82.61l-33-30a72.7,72.7,0,0,0,32.79-32.55l31.94,29.05a111.15,111.15,0,0,0-72-167.25Zm-23.88,152.32a43.79,43.79,0,1,1,43.79-43.79A43.79,43.79,0,0,1,1031.71,718.68Z"/><path class="cls-5" d="M1879.64,566.74V604a72.08,72.08,0,0,0-46.15-1.22V566.18a111.14,111.14,0,0,0-72.86,167.44l29-30.1a72.65,72.65,0,0,0,32.22,33.07l-29.4,30.55a111.06,111.06,0,0,0,126.77-.63l-32.32-29.4a72.75,72.75,0,0,0,32.79-32.55l31,28.19a111.09,111.09,0,0,0-71-166Zm-23.88,151.94a43.79,43.79,0,1,1,43.79-43.79A43.79,43.79,0,0,1,1855.76,718.68Z"/></g></g></svg>