<svg xmlns="http://www.w3.org/2000/svg" viewBox="0 0 532.8 555.49"><defs><style>.cls-1{fill:#0089bf;}.cls-2{fill:#003f59;}</style></defs><title>gears</title><g id="Layer_2" data-name="Layer 2"><g id="Icon"><path class="cls-1" d="M316.22,113.08l-19.35-.41a121.21,121.21,0,0,0-5.66-18l15.11-12.92L298,66.89l-18.1,6.26a122.1,122.1,0,0,0-11.63-15L277.88,41,264.94,29.88l-14.66,12A123.59,123.59,0,0,0,234,31.79l3-19.27-16-5.9-9.52,16.22A121.73,121.73,0,0,0,192.73,19L188.91,0h-17l-3.29,18.47c-2.86.21-5.71.5-8.51.91L151.4,2.1,135,6.59l1.69,18.62a121.49,121.49,0,0,0-17.59,7.9L105,19.91,91.09,29.82l8.06,17A123.5,123.5,0,0,0,85.48,60.26L67.55,52.72,58,66.82,71.5,80a122.26,122.26,0,0,0-8.14,17.32l-19.52-.86L39.75,113l17.39,7.75a123,123,0,0,0-1.56,18.93l-18.83,6,1.9,16.93,19.2,1.25a121.41,121.41,0,0,0,5,18.18l-15.7,12.28,7.64,15.23L73.45,204a123.24,123.24,0,0,0,11,15.15L73.81,236.36,86.26,248,102,236.2a123.85,123.85,0,0,0,15.39,10.39l-4,20,15.7,6.59,10.75-16.62a120.28,120.28,0,0,0,17.95,4.39l3.15,20.24,17,.75,4.35-19.44a122.43,122.43,0,0,0,18.3-2l10,17.94,16.22-5.2-2.66-19.71a122.52,122.52,0,0,0,16.48-8.26l15.58,13.35,13.42-10.5-9.31-17.54A123.75,123.75,0,0,0,273,217.05l19.19,7.1,8.94-14.5L286.37,196.5a120.6,120.6,0,0,0,7.26-17.09h20.3l3.36-16.7-18.21-7.18a123,123,0,0,0,1-15.21c0-1.16-.05-2.3-.09-3.45l18.9-7ZM177.81,234.15A93.21,93.21,0,1,1,271,141,93.21,93.21,0,0,1,177.81,234.15Z"/><path class="cls-2" d="M316.22,113.08l-19.35-.41a121.21,121.21,0,0,0-5.66-18l15.11-12.92L298,66.89l-18.1,6.26c-1.12-1.7-2.34-3.32-3.54-5l-23.6,17.39a93.2,93.2,0,1,1-150,110.61l-23,17c1.52,2,3.06,4.06,4.7,6L73.81,236.36,86.26,248,102,236.2a123.85,123.85,0,0,0,15.39,10.39l-4,20,15.7,6.59,10.75-16.62a120.28,120.28,0,0,0,17.95,4.39l3.15,20.24,17,.75,4.35-19.44a122.43,122.43,0,0,0,18.3-2l10,17.94,16.22-5.2-2.66-19.71a122.52,122.52,0,0,0,16.48-8.26l15.58,13.35,13.42-10.5-9.31-17.54A123.75,123.75,0,0,0,273,217.05l19.19,7.1,8.94-14.5L286.37,196.5a120.6,120.6,0,0,0,7.26-17.09h20.3l3.36-16.7-18.21-7.18a123,123,0,0,0,1-15.21c0-1.16-.05-2.3-.09-3.45l18.9-7Z"/><path class="cls-1" d="M530.17,286.66l-19.36-.41a120,120,0,0,0-5.66-18l15.12-12.92L512,240.47l-18.11,6.25a122.64,122.64,0,0,0-11.63-15l9.6-17.17-12.95-11.08-14.66,12A121.4,121.4,0,0,0,448,205.37l3-19.27-16-5.91-9.51,16.23a122.21,122.21,0,0,0-18.83-3.82l-3.83-19h-17L382.53,192c-2.87.22-5.71.51-8.52.92l-8.67-17.28-16.43,4.49,1.68,18.61A121.54,121.54,0,0,0,333,206.69l-14.11-13.2L305,203.4l8.07,16.95a121.87,121.87,0,0,0-13.68,13.49l-17.93-7.54-9.57,14.09,13.52,13.18a122.14,122.14,0,0,0-8.13,17.32L257.78,270l-4.09,16.54,17.39,7.74a123.15,123.15,0,0,0-1.56,18.94l-18.82,6,1.89,16.93,19.2,1.24a121.2,121.2,0,0,0,5,18.19l-15.7,12.28,7.64,15.22,18.64-5.54a122.23,122.23,0,0,0,11,15.16l-10.61,17.18,12.45,11.63,15.74-11.79a122.68,122.68,0,0,0,15.39,10.38l-4,20,15.71,6.6,10.74-16.62a121.83,121.83,0,0,0,17.95,4.39l3.16,20.24,17,.74L396.22,436a121.13,121.13,0,0,0,18.3-2l10,17.95,16.22-5.2L438.09,427a121.94,121.94,0,0,0,16.48-8.26l15.59,13.35,13.41-10.5-9.3-17.54a122.84,122.84,0,0,0,12.63-13.47l19.19,7.1,8.94-14.5-14.71-13.14A123,123,0,0,0,507.58,353h20.29l3.36-16.7L513,329.12a123.23,123.23,0,0,0,1-15.21c0-1.16,0-2.3-.08-3.45l18.89-7ZM391.75,407.73a93.21,93.21,0,1,1,93.2-93.2A93.21,93.21,0,0,1,391.75,407.73Z"/><path class="cls-2" d="M530.17,286.66l-19.36-.41a120,120,0,0,0-5.66-18l15.12-12.92L512,240.47l-18.11,6.25c-1.11-1.69-2.34-3.31-3.53-4.95l-23.6,17.4a93.2,93.2,0,1,1-150,110.61l-23,17c1.52,2,3.06,4.06,4.7,6l-10.61,17.18,12.45,11.63,15.74-11.79a122.68,122.68,0,0,0,15.39,10.38l-4,20,15.71,6.6,10.74-16.62a121.83,121.83,0,0,0,17.95,4.39l3.16,20.24,17,.74L396.22,436a121.13,121.13,0,0,0,18.3-2l10,17.95,16.22-5.2L438.09,427a121.94,121.94,0,0,0,16.48-8.26l15.59,13.35,13.41-10.5-9.3-17.54a122.84,122.84,0,0,0,12.63-13.47l19.19,7.1,8.94-14.5-14.71-13.14A123,123,0,0,0,507.58,353h20.29l3.36-16.7L513,329.12a123.23,123.23,0,0,0,1-15.21c0-1.16,0-2.3-.08-3.45l18.89-7Z"/><path class="cls-1" d="M279.47,386.68l-19.35-.41a121.34,121.34,0,0,0-5.66-18l15.11-12.92-8.3-14.87-18.1,6.25a123.71,123.71,0,0,0-11.64-15l9.6-17.17-12.94-11.08-14.67,12a121.4,121.4,0,0,0-16.24-10.1l3-19.28-16-5.9-9.52,16.23A120.8,120.8,0,0,0,156,292.62l-3.82-19h-17l-3.29,18.47q-4.31.31-8.52.91l-8.67-17.28-16.43,4.49,1.68,18.62a121.42,121.42,0,0,0-17.58,7.91l-14.12-13.2-13.86,9.9,8.07,16.95a123.59,123.59,0,0,0-13.68,13.49l-17.93-7.53-9.56,14.09,13.52,13.18a120.09,120.09,0,0,0-8.14,17.32l-19.53-.86L3,386.59l17.4,7.74a123,123,0,0,0-1.57,18.94L0,419.29l1.9,16.93,19.19,1.25a121.86,121.86,0,0,0,5,18.19l-15.7,12.28,7.65,15.22,18.63-5.54a122.41,122.41,0,0,0,11,15.15L37.06,510,49.5,521.59l15.75-11.8a121.92,121.92,0,0,0,15.38,10.39l-4,20,15.71,6.6,10.74-16.62a123.11,123.11,0,0,0,18,4.39l3.16,20.24,17,.74,4.35-19.43a123.62,123.62,0,0,0,18.29-2l10,18,16.22-5.2-2.65-19.72a120.61,120.61,0,0,0,16.47-8.25l15.59,13.35,13.41-10.5-9.3-17.54a122.84,122.84,0,0,0,12.63-13.47l19.19,7.1,8.95-14.5-14.72-13.15A122.45,122.45,0,0,0,256.88,453h20.29l3.37-16.7-18.22-7.17a123.26,123.26,0,0,0,1-15.22c0-1.15-.06-2.29-.09-3.44l18.89-7ZM141.05,507.75a93.21,93.21,0,1,1,93.21-93.21A93.21,93.21,0,0,1,141.05,507.75Z"/><path class="cls-2" d="M279.47,386.68l-19.35-.41a121.34,121.34,0,0,0-5.66-18l15.11-12.92-8.3-14.87-18.1,6.25c-1.12-1.7-2.34-3.31-3.54-4.95L216,359.19A93.2,93.2,0,1,1,66,469.79l-23,17c1.52,2,3.06,4.06,4.7,6L37.06,510,49.5,521.59l15.75-11.8a121.92,121.92,0,0,0,15.38,10.39l-4,20,15.71,6.6,10.74-16.62a123.11,123.11,0,0,0,18,4.39l3.16,20.24,17,.74,4.35-19.43a123.62,123.62,0,0,0,18.29-2l10,18,16.22-5.2-2.65-19.72a120.61,120.61,0,0,0,16.47-8.25l15.59,13.35,13.41-10.5-9.3-17.54a122.84,122.84,0,0,0,12.63-13.47l19.19,7.1,8.95-14.5-14.72-13.15A122.45,122.45,0,0,0,256.88,453h20.29l3.37-16.7-18.22-7.17a123.26,123.26,0,0,0,1-15.22c0-1.15-.06-2.29-.09-3.44l18.89-7Z"/></g></g></svg>