<svg xmlns="http://www.w3.org/2000/svg" viewBox="0 0 618.62 971.11"><defs><style>.cls-1{fill:#003f59;}.cls-2{fill:#2cc1ff;}.cls-3{fill:#0089bf;}.cls-4{fill:#fff;}</style></defs><title>mechanic</title><g id="Layer_2" data-name="Layer 2"><g id="Icon"><path class="cls-1" d="M568.94,532.17,380.46,432.86l-186.25,11L48.59,523.11A93,93,0,0,0,0,604.86V971.11H618.62V614.51A93.08,93.08,0,0,0,568.94,532.17Z"/><path class="cls-2" d="M115,245.71c-25.12,24.26-9.31,137.5,44.81,131s19.83-131,19.83-131S140.14,221.46,115,245.71Z"/><path class="cls-2" d="M442.79,245.71s-34.28,124.5,19.84,131,69.92-106.74,44.8-131S442.79,245.71,442.79,245.71Z"/><ellipse class="cls-2" cx="310.22" cy="293.69" rx="150.39" ry="229.41"/><polygon class="cls-3" points="168.74 326.98 194.21 223.94 159.83 233.72 168.74 326.98"/><polygon class="cls-3" points="450.45 326.98 459.37 233.72 424.98 223.94 450.45 326.98"/><path class="cls-1" d="M292.75,1.77C163.25,18.62,160,93.32,160,93.32v98.14L95.6,242a4.85,4.85,0,0,0,4.22,8.53c37.94-10.13,112-20.84,187.94,18.66,28,14.58,60.86,16.94,90.1,4.94l73.2-30.05h9.55V101.11A35,35,0,0,0,457.16,86C445.28,61.09,400.65-12.27,292.75,1.77Z"/><rect class="cls-4" x="193.41" y="64.28" width="231.8" height="100.16" rx="44.11"/><polygon class="cls-3" points="277.15 418.47 352.18 418.47 314.67 331.93 277.15 418.47"/><path class="cls-1" d="M233.63,306a20.53,20.53,0,1,0,20.53,20.53A20.53,20.53,0,0,0,233.63,306Z"/><path class="cls-1" d="M383.23,306a20.53,20.53,0,1,0,20.53,20.53A20.53,20.53,0,0,0,383.23,306Z"/><path class="cls-1" d="M274.35,450.87,263,466.07c10.47,7.87,29.11,17,48.91,17,14.23,0,29.06-4.7,41.86-17.95l-13.65-13.2C313.5,479.38,276,452.05,274.35,450.87Z"/><polygon class="cls-4" points="452.05 639.8 177.02 639.8 120.99 483.71 73.63 509.48 73.63 971.11 548.17 971.11 548.17 521.23 501.78 496.79 452.05 639.8"/><path class="cls-1" d="M427.15,831.91a17,17,0,0,0-16.65-3.28l-48.65,16.58-77.48-68,10-50.62a17,17,0,0,0-5.49-16.08l-26.76-23.39a17.94,17.94,0,0,0-16-3.92L218.3,690l32.46,28-9.62,48.71-47,16-32.47-28-3,28.5a18,18,0,0,0,6,15.36L191.47,822a17,17,0,0,0,16.66,3.29l48.64-16.59,77.48,68-10,50.61a17,17,0,0,0,5.49,16.09l26.76,23.38a17.91,17.91,0,0,0,16,3.92l27.83-6.72L368.2,936l9.62-48.72,47-16L457,899.15l3-28.51a17.94,17.94,0,0,0-6-15.35Z"/><path class="cls-3" d="M427.15,831.91a17,17,0,0,0-16.65-3.28l-48.65,16.58-77.48-68,10-50.62a17,17,0,0,0-5.49-16.08l-26.76-23.39a17.94,17.94,0,0,0-16-3.92L218.3,690l32.46,28-9.62,48.71-.07,0,136.82,120.6,46.93-16L457,899.15l3-28.51a17.94,17.94,0,0,0-6-15.35Z"/></g></g></svg>