<svg xmlns="http://www.w3.org/2000/svg" viewBox="0 0 1569.62 342.85"><defs><style>.cls-1{fill:#2cc1ff;}.cls-2{fill:#0089bf;}.cls-3{fill:#003f59;}</style></defs><title>oil refil</title><g id="Layer_2" data-name="Layer 2"><g id="Icon"><path class="cls-1" d="M1002.62,172.94,801.06,160.41C765.83,171.69,773.33,201,773.33,201s193.13-14.47,229.29-3.41S1032,250.36,1032,250.36s17.86-37.43,3.87-58.21S1002.62,172.94,1002.62,172.94Z"/><path class="cls-2" d="M1135.19,27.38A27.38,27.38,0,0,0,1107.81,0h-153a27.38,27.38,0,0,0-27.38,27.38,25.2,25.2,0,0,1-18.36,24.25L694.33,112.09l32.79,73.13,67.94,123.06a36.75,36.75,0,0,0,41.54,17.78l213.8-56.4a36.74,36.74,0,0,0,26.46-27.38l14.26-62.68,158.45-22.5v-90l-114.38-5.63ZM1002.52,261.1,865.07,288a47.81,47.81,0,0,1-51.93-25.53l-22.69-45.37a47.79,47.79,0,0,1,27.36-66.61l94-32a47.77,47.77,0,0,1,44.33,7.23l66.17,50.39C1055.08,201.17,1043,253.17,1002.52,261.1Z"/><path class="cls-3" d="M1022.28,176.19c32.8,25,20.7,77-19.76,84.91L865.07,288a47.81,47.81,0,0,1-51.93-25.53L794.87,226l-39.21,10.95,39.4,71.36a36.75,36.75,0,0,0,41.54,17.78l213.8-56.4a36.74,36.74,0,0,0,26.46-27.38l14.26-62.68,158.45-22.5V109L956.11,125.8Z"/><path class="cls-2" d="M664.41,132.42a9.58,9.58,0,0,0-3.28,12.05l19.18,40.28a9.56,9.56,0,0,0,11.37,5.06l24.52-7.28-28.87-65.61Z"/><path class="cls-1" d="M1427.46,89H1256v45h164.82a31.42,31.42,0,0,1,9.14,1.36l93,28.24,26.28-39.07L1436.61,90.38A31.53,31.53,0,0,0,1427.46,89Z"/><path class="cls-2" d="M1256,121.2V134h164.82a31.42,31.42,0,0,1,9.14,1.36l93,28.24,8.34-12.4L1428,116.92Z"/><path class="cls-2" d="M335.35,329.91H0v12.94H335.35c130,0,254.18-62.14,332.12-166.23l-7.18-13C584.78,264.48,461.32,329.91,335.35,329.91Z"/><path class="cls-3" d="M1545,152.19l-22.76,53.72a24.51,24.51,0,0,0,7,31.45l1.35,1a24.5,24.5,0,0,0,36-31.57Z"/></g></g></svg>