<svg xmlns="http://www.w3.org/2000/svg" viewBox="0 0 850.74 818.4"><defs><style>.cls-1{fill:#28aee6;}.cls-2{fill:#0089bf;}.cls-3{fill:#003f59;}</style></defs><title>screwdriver with wrench</title><g id="Layer_2" data-name="Layer 2"><g id="Icon"><polygon class="cls-1" points="765.03 86.06 739.81 60.84 583.31 153.63 601.07 201.69 217.3 576.9 247.82 607.43 630.89 232.92 678.95 250.68 771.74 94.18 764.29 86.73 765.03 86.06"/><polygon class="cls-2" points="0 747.28 71.11 818.4 339.54 579.66 245.06 485.18 0 747.28"/><polygon class="cls-3" points="38.72 786 71.11 818.4 339.54 579.66 292.3 532.42 38.72 786"/><path class="cls-3" d="M833.68,480.47l-74.5-65.09a47.3,47.3,0,0,0-46.39-9.16L577.33,452.4,361.57,263.17l27.84-141a47.3,47.3,0,0,0-15.28-44.79L299.61,12.32A49.86,49.86,0,0,0,255.08,1.4L177.56,20.12,268,98,241.17,233.7,110.29,278.32,19.88,200.4l-8.32,79.38a49.89,49.89,0,0,0,16.79,42.76l74.5,65.09a47.32,47.32,0,0,0,46.39,9.15L284.7,350.6,500.46,539.84,472.62,680.79a47.3,47.3,0,0,0,15.28,44.79l74.52,65.11A49.88,49.88,0,0,0,607,801.61l77.51-18.72L595,705.31l26.8-135.66L752.69,525l89.46,77.58,8.32-79.37A49.87,49.87,0,0,0,833.68,480.47Z"/><path class="cls-2" d="M833.68,480.47l-74.5-65.09a47.3,47.3,0,0,0-46.39-9.16L577.33,452.4,361.57,263.17l27.84-141a47.3,47.3,0,0,0-15.28-44.79L299.61,12.32A49.86,49.86,0,0,0,255.08,1.4L177.56,20.12,268,98,241.17,233.7l-.18.06L622,569.58,752.69,525l89.46,77.58,8.32-79.37A49.87,49.87,0,0,0,833.68,480.47Z"/></g></g></svg>