<svg xmlns="http://www.w3.org/2000/svg" viewBox="0 0 631.08 516.26"><defs><style>.cls-1{fill:#0089bf;}.cls-2{fill:#003f59;}.cls-3{fill:#2cc1ff;}</style></defs><title>side window</title><g id="Layer_2" data-name="Layer 2"><g id="Icon"><path class="cls-1" d="M590.47,0H337a79.08,79.08,0,0,0-46.64,15.21L32.5,203.32a79.17,79.17,0,0,0-30.86,80l44,212.88a25.2,25.2,0,0,0,24.68,20.1H606.2a24.88,24.88,0,0,0,24.88-24.88V40.6A40.61,40.61,0,0,0,590.47,0ZM579.72,284.15H90.09l-1.32-6.4a61.74,61.74,0,0,1,24.07-62.37L314,68.65a61.74,61.74,0,0,1,36.39-11.86h197.7a31.67,31.67,0,0,1,31.67,31.67Z"/><path class="cls-2" d="M45.63,496.16a25.2,25.2,0,0,0,24.68,20.1H606.2a24.88,24.88,0,0,0,24.88-24.88V355.17H16.5Z"/><rect class="cls-3" x="446.2" y="337.03" width="132.18" height="38.37" rx="19.18"/></g></g></svg>