<svg xmlns="http://www.w3.org/2000/svg" viewBox="0 0 377.31 572.95"><defs><style>.cls-1{fill:#003f59;}.cls-2{fill:#0089bf;}</style></defs><title>side wheel</title><g id="Layer_2" data-name="Layer 2"><g id="Icon"><path class="cls-1" d="M300.85,33.7c-9.29,0-18.19,5.41-26.43,15.29,29.2,35,50,126.44,50,233.68s-20.82,198.64-50,233.68c8.24,9.88,17.14,15.29,26.43,15.29,42.23,0,76.46-111.47,76.46-249S343.08,33.7,300.85,33.7Z"/><path class="cls-2" d="M116.7,371A526.19,526.19,0,0,0,128,434.36c13.64-58.75,56.61-85.47,74.75-94.24-3-37.8-3.18-57.05-.87-95C178.11,257.4,124.41,292.81,116.7,371Z"/><path class="cls-2" d="M221.23,122.51C195.17,134,135.06,166.3,112.64,245.45a565.31,565.31,0,0,0-.81,65.35,177.68,177.68,0,0,1,92.65-96.33C208.52,176.86,211.87,158.21,221.23,122.51Z"/><path class="cls-2" d="M199,44.94l-.08.06a209.07,209.07,0,0,0-67,77.78c-6.43,24.55-9,37.19-12.92,62.75A218.3,218.3,0,0,1,229.54,93.87c4.51-14.14,7-21.08,12.38-34.64,1.28-3.22,2.35-6.33,3.32-9.37,4.94-10.85,16.53-27.81,41.83-32.2l2.15-.34S269.4-6.68,199,44.94Z"/><path class="cls-2" d="M90,310.73a566.52,566.52,0,0,1,.81-65.42C78,166.22,40.91,134,20.92,122.5c-9.36,35.7-12.71,54.34-16.75,91.95C22.05,223.15,60.47,249,90,310.73Z"/><path class="cls-2" d="M238.64,2.07A22.51,22.51,0,0,0,228.85,0H181.07c-14.51,25.37-20.82,39-31.55,67.39C178.92,33.85,212.42,14.21,238.64,2.07Z"/><path class="cls-2" d="M159.24,0H111.46A41.63,41.63,0,0,0,99.33,2.07c12.52,12.12,24.32,31.75,28.38,65.26C138.44,39,144.74,25.34,159.24,0Z"/><path class="cls-2" d="M97.18,185.47c3.92-25.6,6.51-38.24,12.94-62.82,1.58-63.38-19.66-91.79-37.7-105.33A106.78,106.78,0,0,0,41.61,59.23c-5.39,13.55-7.86,20.5-12.37,34.63C45.49,101.9,79.1,125.07,97.18,185.47Z"/><path class="cls-2" d="M239.14,506.62c-2-5.23-3.56-9.56-5.87-16.29-16.7,9.61-48.91,35.9-43.74,82.62h39.32c.41,0,.77-.07,1.17-.08,1,0,2.11.08,3.25.08,37.88,0,53.81-21.78,53.81-21.78C261.59,548.12,246.57,523.58,239.14,506.62Z"/><path class="cls-2" d="M224.39,462c-10-35.33-13.75-53.85-18.49-91.29-21.5,12.09-68.79,48.22-61.78,119.87,8.11,23.6,12.8,35,23.43,56.8C169.73,496,207.88,470.21,224.39,462Z"/><path class="cls-2" d="M41.61,513.72C55.19,547.88,88.66,573,111.46,573h39.35c-48.31-46.74-94.58-73-117.86-82.63C36.21,499.81,37.94,504.5,41.61,513.72Z"/><path class="cls-2" d="M122.24,490.47C80,418.86,30.13,382.77,5.59,370.7c4.74,37.45,8.44,56,18.49,91.3,21.14,8.18,69.18,33.92,121.61,85.34C135.05,525.55,130.36,514.09,122.24,490.47Z"/><path class="cls-2" d="M106.17,434.29c-5.79-24.88-8-37.65-11.32-63.43-27.56-78.13-71-113.49-93.27-125.71-2.31,37.91-2.14,57.15.87,95C22,348.85,65.19,375.56,106.17,434.29Z"/><path class="cls-1" d="M169.19,401.87a521,521,0,0,0,25.21,82.45,111.4,111.4,0,0,1,30-22.31c-10-35.33-13.75-53.85-18.49-91.29A129.77,129.77,0,0,0,169.19,401.87Z"/><path class="cls-1" d="M243.72,18.47c-12.59,21.14-26.21,47.32-41,79.68-1.59,3.49-3.1,7-4.59,10.42a224,224,0,0,1,31.37-14.7c4.51-14.14,7-21.08,12.38-34.64,1.28-3.22,2.35-6.33,3.32-9.37,4.94-10.85,16.53-27.81,41.83-32.2l2.15-.34S278.25,4.09,243.72,18.47Z"/><path class="cls-1" d="M201.89,245.17a165,165,0,0,0-43.31,32.39A476.52,476.52,0,0,0,163.22,369a141.69,141.69,0,0,1,39.54-28.9C199.75,302.32,199.58,283.07,201.89,245.17Z"/><path class="cls-1" d="M161.68,241.47a177.25,177.25,0,0,1,42.8-27c4-37.61,7.39-56.26,16.75-92a211.81,211.81,0,0,0-36.49,20.7A480.09,480.09,0,0,0,161.68,241.47Z"/><path class="cls-1" d="M239.14,506.62c-2-5.23-3.56-9.56-5.87-16.29A97,97,0,0,0,206.78,513a485,485,0,0,0,33.05,59.77c33.16-2.31,47.25-21.55,47.25-21.55C261.59,548.12,246.57,523.58,239.14,506.62Z"/></g></g></svg>