<svg xmlns="http://www.w3.org/2000/svg" viewBox="0 0 528.61 268.56"><defs><style>.cls-1{fill:#0089bf;}.cls-2{fill:#2cc1ff;}.cls-3{fill:#003f59;}</style></defs><title>side mirror</title><g id="Layer_2" data-name="Layer 2"><g id="Icon"><path class="cls-1" d="M487,57.47a92.2,92.2,0,0,0-64.62-37.12L234.82.51a92.23,92.23,0,0,0-38,4L92,38.27,0,48.88v132.7H92l54.71,58a92.19,92.19,0,0,0,80.29,28l222.46-32.18c68.9-10,102.33-89.75,61.13-145.86ZM460.26,177.85l-11.45,12A71.64,71.64,0,0,1,406.6,211.3L239.81,233.73a71.62,71.62,0,0,1-59.3-19.46l-34.38-33.2a71.61,71.61,0,0,1-21.87-51.52V124a71.61,71.61,0,0,1,49.48-68.11l62-20.16a71.59,71.59,0,0,1,33.64-2.57L420,57.65a71.63,71.63,0,0,1,40.25,120.2Z"/><path class="cls-2" d="M369.06,67.15l-104.76-16S393.06,104,386.66,185.55h17.6l44.59-43.2S409.81,91.57,369.06,67.15Z"/><path class="cls-3" d="M479.36,118.35a71.54,71.54,0,0,1-19.1,59.5l-11.45,12A71.64,71.64,0,0,1,406.6,211.3L239.81,233.73a71.62,71.62,0,0,1-59.3-19.46l-34.38-33.2a71.61,71.61,0,0,1-21.87-51.52V124c0-1.89.07-3.77.22-5.63H75.58L0,136.51v45.07H92l54.71,58a92.19,92.19,0,0,0,80.29,28l222.46-32.18c57.72-8.35,90.52-65.7,75.42-117.08Z"/></g></g></svg>