<svg xmlns="http://www.w3.org/2000/svg" viewBox="0 0 668.25 582.17"><defs><style>.cls-1{fill:#0089bf;}.cls-2{fill:#003f59;}.cls-3{fill:#2cc1ff;}</style></defs><title>sit</title><g id="Layer_2" data-name="Layer 2"><g id="Icon"><path class="cls-1" d="M559.82,127.43a45.34,45.34,0,0,0-35.73,10.09L402.88,239a45.31,45.31,0,0,0-14.78,23.37l-34,130.74A45.35,45.35,0,0,1,300,425.87L157.14,392.65a45.25,45.25,0,0,0-21.76.3L33.89,419.53A45.35,45.35,0,0,0,8,489.08L58.45,562.5a45.36,45.36,0,0,0,37.38,19.67H400.64a45.35,45.35,0,0,0,42.57-29.72l95.25-259.51a45.54,45.54,0,0,1,3-6.47l51.38-92.08A45.35,45.35,0,0,0,559.82,127.43Z"/><path class="cls-2" d="M532.26,208.85a357.67,357.67,0,0,0-70.81,117.92L406.56,478.43a62,62,0,0,1-58.32,40.92H28.8L58.45,562.5a45.36,45.36,0,0,0,37.38,19.67H400.64a45.35,45.35,0,0,0,42.57-29.72l95.25-259.51a45.54,45.54,0,0,1,3-6.47l51.38-92.08a45.22,45.22,0,0,0-3.17-49.1Z"/><path class="cls-1" d="M653.67,17.11A26.9,26.9,0,0,0,624.89.29c-10.77,1.63-24.12,7.45-37.37,23.06C557.53,58.66,555.2,106,555.2,106l26.31,18.24a31.76,31.76,0,0,0,43.1-6.51l40.31-51.43a15.65,15.65,0,0,0,2.21-15.46Z"/><rect class="cls-3" x="156.47" y="505.4" width="135.42" height="30.96" rx="15.48"/></g></g></svg>