<svg xmlns="http://www.w3.org/2000/svg" viewBox="0 0 625.64 877.45"><defs><style>.cls-1{fill:#003f59;}.cls-2{fill:#0089bf;}.cls-3{fill:#2cc1ff;}</style></defs><title>sitvelt</title><g id="Layer_2" data-name="Layer 2"><g id="Icon"><rect class="cls-1" x="214.25" y="105.75" width="25.27" height="55.13"/><rect class="cls-1" x="371.6" y="105.75" width="25.27" height="55.13"/><path class="cls-2" d="M502.8,205.06a95.47,95.47,0,0,0-85.53-53H208.37a95.47,95.47,0,0,0-85.53,53L62.83,326a101.19,101.19,0,0,0-9.33,60.73L108.22,734.2h409.2l54.72-347.51A101.26,101.26,0,0,0,562.82,326Z"/><path class="cls-2" d="M416.88,12.93A21.12,21.12,0,0,0,397.41,0H221.28a21.13,21.13,0,0,0-19.73,13.59L170.17,95.84a15.85,15.85,0,0,0,14.8,21.5H437a15.84,15.84,0,0,0,14.61-22Z"/><path class="cls-3" d="M475.07,152,37.6,733.66l78.9,59.72L539.39,231l-13.7-22.72A200.06,200.06,0,0,0,475.07,152Z"/><path class="cls-1" d="M0,797.2a80.48,80.48,0,0,0,80.25,80.25H545.39a80.48,80.48,0,0,0,80.25-80.25V727.56H0Z"/><path class="cls-1" d="M195.32,642.54a8.62,8.62,0,0,0-1.25-12.14l-29.81-24.22a8.62,8.62,0,0,0-12.13,1.25l-18,22.15-27.65-20.27L84,637.1l113.4,81,21.11-26.65L180.91,665Z"/><path class="cls-1" d="M249.84,616.05l-79-59.6,12.87-17.1-26,1.45-46.95,62.76,20.28,14.84,18.07-20.87a10,10,0,0,1,13.59-1.46l43,32.21a10,10,0,0,1,2.35,13.55L193.42,664l29.3,21.44,50.48-69.41-7.08-21.64Z"/></g></g></svg>