<svg xmlns="http://www.w3.org/2000/svg" viewBox="0 0 739.06 747.41"><defs><style>.cls-1{fill:#0089bf;}.cls-2{fill:#003f59;}.cls-3{fill:#2cc1ff;}</style></defs><title>wheel desc</title><g id="Layer_2" data-name="Layer 2"><g id="Icon"><path class="cls-1" d="M441.53,59.44l-11.7,162.21A183.75,183.75,0,0,1,577.06,401.72c0,101.45-82.24,183.7-183.69,183.7-90.48,0-165.63-65.43-180.84-151.55H49.21C65.44,609.71,213.29,747.41,393.37,747.41c190.92,0,345.69-154.77,345.69-345.69C739.06,227.15,609.64,82.89,441.53,59.44Z"/><path class="cls-2" d="M342.35.57C69.66,44,12.27,248.87.36,342.85a44.75,44.75,0,0,0,41.4,50.3l152.05,10.17A44.68,44.68,0,0,0,240.51,368c18.49-87.38,77.39-111.69,116.66-118,21.44-3.43,37-22.35,37-44.06V44.79A44.79,44.79,0,0,0,342.35.57Z"/><path class="cls-3" d="M394.14,262.09A141.33,141.33,0,1,0,535.47,403.42,141.33,141.33,0,0,0,394.14,262.09Zm51.41,44.51a15.13,15.13,0,1,1,4.32,20.95A15.13,15.13,0,0,1,445.55,306.6Zm-47-26.65a15.13,15.13,0,1,1-15.13,15.13A15.13,15.13,0,0,1,398.59,280Zm-63.38,15.5a15.13,15.13,0,1,1-5.42,20.7A15.12,15.12,0,0,1,335.21,295.45Zm-46.1,43.81a15.13,15.13,0,1,1,5.52,20.67A15.14,15.14,0,0,1,289.11,339.26Zm-18.39,69.08a15.13,15.13,0,1,1,16,14.23A15.14,15.14,0,0,1,270.72,408.34Zm43.77,70.93a15.13,15.13,0,1,1,3.11-21.17A15.12,15.12,0,0,1,314.49,479.27Zm54.38,32.09a15.13,15.13,0,1,1-9-19.4A15.12,15.12,0,0,1,368.87,511.36Zm51.83,15.12a15.13,15.13,0,1,1,11.24-18.2A15.13,15.13,0,0,1,420.7,526.48Zm-26.56-43.6a79.46,79.46,0,1,1,79.46-79.46A79.45,79.45,0,0,1,394.14,482.88Zm89.41,9.55a15.13,15.13,0,1,1-.62-21.38A15.13,15.13,0,0,1,483.55,492.43Zm33.79-63a15.13,15.13,0,1,1-12.26-17.53A15.13,15.13,0,0,1,517.34,429.45ZM511,358.25a15.13,15.13,0,1,1-19.88-7.9A15.13,15.13,0,0,1,511,358.25Z"/><path class="cls-3" d="M117.82,398.24l36.35,2.43c17.76-178,151.93-226.51,240-239V126C308.56,130.89,123.43,168.18,117.82,398.24Z"/></g></g></svg>