<svg xmlns="http://www.w3.org/2000/svg" viewBox="0 0 572.26 572.26"><defs><style>.cls-1{fill:#003f59;}.cls-2{fill:#0089bf;}</style></defs><title>width wheel</title><g id="Layer_2" data-name="Layer 2"><g id="Icon"><path class="cls-1" d="M286.13,0C128.11,0,0,128.11,0,286.13S128.11,572.26,286.13,572.26s286.13-128.1,286.13-286.13S444.16,0,286.13,0Zm0,338.88a52.75,52.75,0,1,1,52.75-52.75A52.75,52.75,0,0,1,286.13,338.88Z"/><path class="cls-2" d="M286.13,239a47.13,47.13,0,1,0,47.13,47.13A47.19,47.19,0,0,0,286.13,239Zm0,74.66a27.53,27.53,0,1,1,27.53-27.53A27.57,27.57,0,0,1,286.13,313.66Z"/><path class="cls-2" d="M286.13,73.8C169.06,73.8,73.8,169.05,73.8,286.13s95.26,212.33,212.33,212.33,212.33-95.25,212.33-212.33S403.21,73.8,286.13,73.8Zm0,405.06C179.86,478.86,93.4,392.4,93.4,286.13S179.86,93.4,286.13,93.4s192.73,86.46,192.73,192.73S392.4,478.86,286.13,478.86Z"/><path class="cls-2" d="M352,236.77l62.73-100.64a197.39,197.39,0,0,0-34.41-23.87l-77.34,92.05H256.3l-73.64-86.39a198.61,198.61,0,0,0-28.87,21.65l58.29,99.27-15.6,43.93L92,322.7a195.92,195.92,0,0,0,12.29,40.94L216,338.25l37.15,28.16,6.64,115.45a199.75,199.75,0,0,0,26.39,2c5.33,0,10.56-.38,15.78-.8l10-118.37L350,337.75l116.23,29.68a196.18,196.18,0,0,0,13.11-39.49L366.06,281.21ZM286.13,338.88a52.75,52.75,0,1,1,52.75-52.75A52.75,52.75,0,0,1,286.13,338.88Z"/></g></g></svg>