<svg xmlns="http://www.w3.org/2000/svg" viewBox="0 0 529.12 569.1"><defs><style>.cls-1{fill:#0089bf;}.cls-2{fill:#003f59;}.cls-3{fill:#fff;}</style></defs><title>wrecnh in hand</title><g id="Layer_2" data-name="Layer 2"><g id="Icon"><path class="cls-1" d="M306.9,423.75,147.82,113.82l23.42-43.74L146.83,22.52,92.34,0l-11,5.66,44.23,86-23.59,12.11-9.79,5L68.56,120.86l-44.06-86-11,5.66L0,97.89l24.41,47.55,49.19,6.48L231.78,460.1a73.13,73.13,0,1,0,75.12-36.35Zm23,101.42L299.17,541l-32.88-10.58-15.78-30.73,10.58-32.89L291.82,451l32.89,10.57,15.77,30.74Z"/><path class="cls-2" d="M306.9,423.75,147.82,113.82l23.42-43.74L146.83,22.52,92.34,0l-11,5.66,44.23,86-23.59,12.11L97,106.24l180.67,352L291.82,451l32.89,10.57,15.77,30.74-10.57,32.88-14.12,7.25,14.33,27.92A73.09,73.09,0,0,0,306.9,423.75Z"/><path class="cls-3" d="M365,172.88l-58.54-62.65a39.89,39.89,0,0,0-31.43-12.55c-20,1.13-53.05-.53-77.8-19.33-9.21-7-22.67-2.3-24.7,9.09-1.83,10.33-2.17,22.6,1.92,34.57,10,29.37,60.48,41,60.48,41L57.59,208.85a29.93,29.93,0,0,0-22.42,27.57A25.21,25.21,0,0,0,51.68,261.3l25.14,9.23-1.71,15.71a25.24,25.24,0,0,0,16,26.29l18.25,7L109,334a25.24,25.24,0,0,0,19.14,25.28L143,363l-.49,10a25.23,25.23,0,0,0,17.63,25.31l12.25,3.85a78.8,78.8,0,0,0,28.78,3.45l155.63-10.34a108.9,108.9,0,0,0,78.14-41.06l21.18-26.77,46-3.06L491.49,164.47Z"/><path class="cls-2" d="M365.63,182.11a9.22,9.22,0,0,1-7.37-2.91l-58.54-62.65a30.64,30.64,0,0,0-24.14-9.63c-23.79,1.34-57.66-1.24-83.93-21.2a6.65,6.65,0,0,0-4.5-1.39,5.75,5.75,0,0,0-5.49,4.73c-2,11.08-1.44,21.16,1.57,30,6.87,20.09,41.17,32.08,53.81,35a9.26,9.26,0,0,1,.23,18L59.91,217.81a20.59,20.59,0,0,0-15.5,19.05,15.92,15.92,0,0,0,10.46,15.76L80,261.84a9.25,9.25,0,0,1,6,9.69l-1.71,15.71a16,16,0,0,0,10.17,16.64l18.24,7a9.25,9.25,0,0,1,5.94,8.93l-.46,14.49a16.07,16.07,0,0,0,12.12,16l14.9,3.7a9.25,9.25,0,0,1,7,9.44l-.49,10a16,16,0,0,0,11.17,16l12.24,3.85a68.92,68.92,0,0,0,25.4,3L356.17,386a99.74,99.74,0,0,0,71.5-37.57l21.19-26.76a9.23,9.23,0,0,1,6.64-3.49l36.77-2.45-9.4-141.39Z"/><polygon class="cls-1" points="444.27 153.29 468.87 352.54 529.12 340.77 504.18 144.69 444.27 153.29"/><path class="cls-1" d="M301.25,239.53l-96.44,11.11a7.2,7.2,0,0,0,.81,14.36,5.78,5.78,0,0,0,.83-.05l96.45-11.11a7.2,7.2,0,0,0-1.65-14.31Z"/><path class="cls-1" d="M309.37,274.39l-95.55,17.24a7.21,7.21,0,0,0,1.27,14.3,7.1,7.1,0,0,0,1.29-.11l95.55-17.24a7.21,7.21,0,0,0-2.56-14.19Z"/><path class="cls-1" d="M313.45,306.21l-93.51,26.12a7.2,7.2,0,0,0,3.87,13.88l93.51-26.12a7.2,7.2,0,0,0-3.87-13.88Z"/></g></g></svg>